<svg width="398" height="493" viewBox="0 0 398 493" fill="none" xmlns="http://www.w3.org/2000/svg">
<g filter="url(#filter0_d_6_103)">
<g filter="url(#filter1_b_6_103)">
<rect x="7" y="3" width="384" height="479" rx="9" fill="#196CE9"/>
<rect x="5.5" y="1.5" width="387" height="482" rx="10.5" stroke="black" stroke-width="3"/>
</g>
<path d="M91.632 95.48C89.072 95.48 86.688 95.048 84.48 94.184C82.304 93.288 80.4 92.056 78.768 90.488C77.136 88.92 75.856 87.096 74.928 85.016C74.032 82.904 73.584 80.632 73.584 78.2C73.584 75.736 74.032 73.464 74.928 71.384C75.856 69.272 77.136 67.432 78.768 65.864C80.432 64.296 82.352 63.08 84.528 62.216C86.736 61.32 89.104 60.872 91.632 60.872C93.488 60.872 95.312 61.144 97.104 61.688C98.896 62.232 100.544 63 102.048 63.992C103.584 64.952 104.864 66.104 105.888 67.448L100.32 72.92C99.136 71.416 97.808 70.296 96.336 69.56C94.896 68.824 93.328 68.456 91.632 68.456C90.288 68.456 89.024 68.712 87.84 69.224C86.688 69.704 85.68 70.376 84.816 71.24C83.952 72.104 83.28 73.128 82.8 74.312C82.32 75.496 82.08 76.792 82.08 78.2C82.08 79.576 82.32 80.856 82.8 82.04C83.312 83.192 84 84.216 84.864 85.112C85.76 85.976 86.8 86.648 87.984 87.128C89.2 87.608 90.512 87.848 91.92 87.848C93.552 87.848 95.056 87.496 96.432 86.792C97.84 86.088 99.104 85.048 100.224 83.672L105.648 89C104.624 90.312 103.36 91.464 101.856 92.456C100.352 93.416 98.72 94.168 96.96 94.712C95.2 95.224 93.424 95.48 91.632 95.48ZM108.759 95V69.608H116.535V72.152C117.367 71.128 118.343 70.36 119.463 69.848C120.583 69.304 121.831 69.032 123.207 69.032C124.583 69.064 125.559 69.272 126.135 69.656V76.424C125.623 76.168 125.047 75.976 124.407 75.848C123.767 75.72 123.111 75.656 122.439 75.656C121.223 75.656 120.087 75.944 119.031 76.52C118.007 77.064 117.175 77.848 116.535 78.872V95H108.759ZM129.478 95V69.608H137.254V95H129.478ZM133.366 67.256C132.182 67.256 131.174 66.84 130.342 66.008C129.51 65.176 129.094 64.168 129.094 62.984C129.094 61.8 129.51 60.792 130.342 59.96C131.174 59.128 132.182 58.712 133.366 58.712C134.55 58.712 135.558 59.128 136.39 59.96C137.222 60.792 137.638 61.8 137.638 62.984C137.638 64.168 137.222 65.176 136.39 66.008C135.558 66.84 134.55 67.256 133.366 67.256ZM150.153 95.432C148.361 95.432 146.761 95.096 145.353 94.424C143.977 93.752 142.889 92.824 142.089 91.64C141.321 90.456 140.937 89.096 140.937 87.56C140.937 85.128 141.849 83.256 143.673 81.944C145.529 80.6 148.105 79.928 151.401 79.928C153.385 79.928 155.305 80.168 157.161 80.648V79.4C157.161 78.12 156.745 77.176 155.913 76.568C155.113 75.928 153.913 75.608 152.313 75.608C151.321 75.608 150.201 75.768 148.953 76.088C147.737 76.408 146.297 76.92 144.633 77.624L141.849 71.912C143.929 70.984 145.929 70.296 147.849 69.848C149.801 69.368 151.753 69.128 153.705 69.128C157.225 69.128 159.961 69.976 161.913 71.672C163.865 73.336 164.841 75.688 164.841 78.728V95H157.161V93.464C156.137 94.168 155.049 94.68 153.897 95C152.777 95.288 151.529 95.432 150.153 95.432ZM148.329 87.416C148.329 88.216 148.681 88.84 149.385 89.288C150.089 89.736 151.065 89.96 152.313 89.96C153.241 89.96 154.105 89.864 154.905 89.672C155.737 89.48 156.489 89.176 157.161 88.76V85.496C156.425 85.304 155.673 85.16 154.905 85.064C154.137 84.968 153.353 84.92 152.553 84.92C151.209 84.92 150.169 85.144 149.433 85.592C148.697 86.008 148.329 86.616 148.329 87.416ZM169.463 95V69.608H177.239V72.152C178.071 71.128 179.047 70.36 180.167 69.848C181.287 69.304 182.535 69.032 183.911 69.032C185.287 69.064 186.263 69.272 186.839 69.656V76.424C186.327 76.168 185.751 75.976 185.111 75.848C184.471 75.72 183.815 75.656 183.143 75.656C181.927 75.656 180.791 75.944 179.734 76.52C178.711 77.064 177.879 77.848 177.239 78.872V95H169.463ZM211.844 95.48C209.316 95.48 207.028 94.904 204.98 93.752C202.964 92.6 201.364 91.032 200.18 89.048C198.996 87.032 198.404 84.792 198.404 82.328C198.404 79.832 198.996 77.592 200.18 75.608C201.364 73.624 202.964 72.056 204.98 70.904C207.028 69.72 209.316 69.128 211.844 69.128C213.924 69.128 215.908 69.544 217.796 70.376C219.684 71.176 221.284 72.328 222.596 73.832L217.844 78.776C216.948 77.752 216.036 77.016 215.108 76.568C214.18 76.088 213.156 75.848 212.036 75.848C210.916 75.848 209.908 76.136 209.012 76.712C208.116 77.256 207.412 78.024 206.9 79.016C206.388 79.976 206.132 81.08 206.132 82.328C206.132 83.544 206.388 84.648 206.9 85.64C207.444 86.6 208.18 87.368 209.108 87.944C210.036 88.488 211.076 88.76 212.228 88.76C213.284 88.76 214.26 88.536 215.156 88.088C216.052 87.64 216.916 86.952 217.748 86.024L222.356 90.824C221.076 92.296 219.508 93.448 217.652 94.28C215.796 95.08 213.86 95.48 211.844 95.48ZM237.352 95.48C234.76 95.48 232.424 94.904 230.344 93.752C228.264 92.568 226.616 90.984 225.4 89C224.184 87.016 223.576 84.792 223.576 82.328C223.576 79.864 224.184 77.64 225.4 75.656C226.616 73.64 228.264 72.056 230.344 70.904C232.424 69.72 234.76 69.128 237.352 69.128C239.944 69.128 242.28 69.72 244.36 70.904C246.44 72.056 248.088 73.64 249.304 75.656C250.52 77.64 251.128 79.864 251.128 82.328C251.128 84.792 250.52 87.016 249.304 89C248.088 90.984 246.44 92.568 244.36 93.752C242.28 94.904 239.944 95.48 237.352 95.48ZM237.352 88.76C238.536 88.76 239.592 88.472 240.52 87.896C241.448 87.32 242.184 86.552 242.728 85.592C243.272 84.6 243.544 83.512 243.544 82.328C243.544 81.112 243.272 80.024 242.728 79.064C242.184 78.072 241.432 77.288 240.472 76.712C239.544 76.136 238.504 75.848 237.352 75.848C236.2 75.848 235.144 76.136 234.184 76.712C233.256 77.288 232.52 78.072 231.976 79.064C231.432 80.024 231.16 81.112 231.16 82.328C231.16 83.512 231.432 84.6 231.976 85.592C232.52 86.552 233.256 87.32 234.184 87.896C235.144 88.472 236.2 88.76 237.352 88.76ZM254.775 95V69.608H262.551V71.336C264.471 69.864 266.743 69.128 269.367 69.128C271.351 69.128 273.095 69.56 274.599 70.424C276.135 71.288 277.335 72.488 278.199 74.024C279.063 75.56 279.495 77.336 279.495 79.352V95H271.719V80.408C271.719 79 271.303 77.88 270.471 77.048C269.639 76.216 268.519 75.8 267.111 75.8C266.119 75.8 265.239 75.976 264.471 76.328C263.735 76.68 263.095 77.176 262.551 77.816V95H254.775ZM296.232 95.336C293.192 95.336 290.888 94.664 289.32 93.32C287.784 91.944 287.016 89.928 287.016 87.272V76.088H281.88V69.608H287.016V63.08L294.792 61.4V69.608H301.896V76.088H294.792V85.736C294.792 86.856 295.032 87.656 295.512 88.136C296.024 88.584 296.904 88.808 298.152 88.808C298.792 88.808 299.368 88.776 299.88 88.712C300.424 88.616 301.016 88.472 301.656 88.28V94.568C300.952 94.792 300.056 94.968 298.968 95.096C297.88 95.256 296.968 95.336 296.232 95.336ZM313.043 95.432C311.251 95.432 309.651 95.096 308.243 94.424C306.867 93.752 305.779 92.824 304.979 91.64C304.211 90.456 303.827 89.096 303.827 87.56C303.827 85.128 304.739 83.256 306.563 81.944C308.419 80.6 310.995 79.928 314.291 79.928C316.275 79.928 318.195 80.168 320.051 80.648V79.4C320.051 78.12 319.635 77.176 318.803 76.568C318.003 75.928 316.803 75.608 315.203 75.608C314.211 75.608 313.091 75.768 311.843 76.088C310.627 76.408 309.187 76.92 307.523 77.624L304.739 71.912C306.819 70.984 308.819 70.296 310.739 69.848C312.691 69.368 314.643 69.128 316.595 69.128C320.115 69.128 322.851 69.976 324.803 71.672C326.755 73.336 327.731 75.688 327.731 78.728V95H320.051V93.464C319.027 94.168 317.939 94.68 316.787 95C315.667 95.288 314.419 95.432 313.043 95.432ZM311.219 87.416C311.219 88.216 311.571 88.84 312.275 89.288C312.979 89.736 313.955 89.96 315.203 89.96C316.131 89.96 316.995 89.864 317.795 89.672C318.627 89.48 319.379 89.176 320.051 88.76V85.496C319.315 85.304 318.563 85.16 317.795 85.064C317.027 84.968 316.243 84.92 315.443 84.92C314.099 84.92 313.059 85.144 312.323 85.592C311.587 86.008 311.219 86.616 311.219 87.416Z" fill="white"/>
<g filter="url(#filter2_d_6_103)">
<path d="M243 152C243 140.954 251.954 132 263 132V132C274.046 132 283 140.954 283 152V152C283 163.046 274.046 172 263 172V172C251.954 172 243 163.046 243 152V152Z" fill="#F3F3F3"/>
<g clip-path="url(#clip0_6_103)">
<path d="M257.934 159.501H254.29V147.817H257.934V159.501ZM256.11 146.224C254.945 146.224 254 145.263 254 144.103C254 143.545 254.222 143.011 254.618 142.617C255.014 142.223 255.551 142.001 256.11 142.001C256.67 142.001 257.207 142.223 257.602 142.617C257.998 143.011 258.221 143.545 258.221 144.103C258.221 145.263 257.275 146.224 256.11 146.224ZM271.572 159.501H267.936V153.813C267.936 152.458 267.908 150.72 266.041 150.72C264.147 150.72 263.857 152.192 263.857 153.716V159.501H260.217V147.817H263.711V149.411H263.762C264.249 148.493 265.437 147.524 267.21 147.524C270.898 147.524 271.576 149.942 271.576 153.083V159.501H271.572Z" fill="black"/>
</g>
</g>
<g filter="url(#filter3_d_6_103)">
<circle cx="199" cy="150" r="20" fill="#FF3131"/>
<path d="M208 149.866C208 149.153 207.942 148.633 207.817 148.093H199.673V151.312H204.453C204.357 152.112 203.837 153.316 202.68 154.126L202.664 154.234L205.239 156.228L205.417 156.246C207.056 154.733 208 152.507 208 149.866Z" fill="white"/>
<path d="M199.673 158.347C202.015 158.347 203.981 157.576 205.417 156.246L202.68 154.126C201.948 154.637 200.965 154.993 199.673 154.993C197.38 154.993 195.433 153.48 194.739 151.389L194.637 151.398L191.96 153.47L191.925 153.567C193.351 156.4 196.281 158.347 199.673 158.347Z" fill="white"/>
<path d="M194.739 151.389C194.556 150.849 194.45 150.271 194.45 149.673C194.45 149.076 194.556 148.498 194.73 147.958L194.725 147.843L192.014 145.738L191.925 145.78C191.337 146.956 191 148.276 191 149.673C191 151.071 191.337 152.391 191.925 153.567L194.739 151.389Z" fill="white"/>
<path d="M199.673 144.354C201.302 144.354 202.401 145.057 203.027 145.645L205.475 143.255C203.972 141.858 202.015 141 199.673 141C196.281 141 193.351 142.947 191.925 145.78L194.73 147.958C195.433 145.867 197.38 144.354 199.673 144.354Z" fill="white"/>
</g>
<g filter="url(#filter4_d_6_103)">
<path d="M115 152C115 140.954 123.954 132 135 132V132C146.046 132 155 140.954 155 152V152C155 163.046 146.046 172 135 172V172C123.954 172 115 163.046 115 152V152Z" fill="#F3F3F3"/>
<g clip-path="url(#clip1_6_103)">
<path d="M139.468 153.688L140.001 150.249H136.667V148.018C136.667 147.077 137.133 146.16 138.626 146.16H140.142V143.232C140.142 143.232 138.766 143 137.451 143C134.705 143 132.911 144.647 132.911 147.628V150.249H129.858V153.688H132.911V162H136.667V153.688H139.468Z" fill="black"/>
</g>
</g>
<rect x="122" y="405" width="151" height="42" rx="21" fill="black" stroke="black" stroke-width="2"/>
<path d="M145.344 432.18C144.408 432.18 143.532 432.018 142.716 431.694C141.9 431.358 141.186 430.896 140.574 430.308C139.974 429.72 139.5 429.036 139.152 428.256C138.816 427.464 138.648 426.612 138.648 425.7C138.648 424.776 138.816 423.924 139.152 423.144C139.5 422.352 139.98 421.662 140.592 421.074C141.204 420.486 141.912 420.03 142.716 419.706C143.532 419.37 144.408 419.202 145.344 419.202C146.04 419.202 146.712 419.298 147.36 419.49C148.008 419.682 148.608 419.952 149.16 420.3C149.724 420.648 150.204 421.068 150.6 421.56L148.836 423.306C148.38 422.742 147.852 422.316 147.252 422.028C146.664 421.74 146.028 421.596 145.344 421.596C144.78 421.596 144.252 421.704 143.76 421.92C143.268 422.124 142.842 422.412 142.482 422.784C142.122 423.144 141.84 423.576 141.636 424.08C141.432 424.572 141.33 425.112 141.33 425.7C141.33 426.276 141.432 426.816 141.636 427.32C141.84 427.812 142.128 428.244 142.5 428.616C142.872 428.976 143.304 429.258 143.796 429.462C144.3 429.666 144.846 429.768 145.434 429.768C146.094 429.768 146.712 429.63 147.288 429.354C147.864 429.078 148.374 428.682 148.818 428.166L150.528 429.858C150.132 430.338 149.658 430.752 149.106 431.1C148.554 431.448 147.954 431.718 147.306 431.91C146.67 432.09 146.016 432.18 145.344 432.18ZM150.848 432L156.032 419.4H159.038L164.168 432H161.342L160.064 428.688H154.862L153.566 432H150.848ZM155.672 426.6H159.272L157.472 421.956L155.672 426.6ZM167.848 429.678H170.044C170.608 429.678 171.13 429.582 171.61 429.39C172.102 429.186 172.528 428.904 172.888 428.544C173.26 428.184 173.542 427.764 173.734 427.284C173.938 426.804 174.04 426.282 174.04 425.718C174.04 425.154 173.938 424.632 173.734 424.152C173.53 423.66 173.248 423.234 172.888 422.874C172.528 422.514 172.102 422.232 171.61 422.028C171.13 421.824 170.608 421.722 170.044 421.722H167.848V429.678ZM165.238 432V419.4H170.08C171.028 419.4 171.904 419.562 172.708 419.886C173.512 420.198 174.214 420.642 174.814 421.218C175.414 421.794 175.882 422.466 176.218 423.234C176.566 424.002 176.74 424.83 176.74 425.718C176.74 426.618 176.572 427.446 176.236 428.202C175.9 428.958 175.426 429.624 174.814 430.2C174.214 430.764 173.512 431.208 172.708 431.532C171.904 431.844 171.028 432 170.08 432H165.238ZM176.617 432L181.801 419.4H184.807L189.937 432H187.111L185.833 428.688H180.631L179.335 432H176.617ZM181.441 426.6H185.041L183.241 421.956L181.441 426.6ZM195.771 432.18C194.751 432.18 193.755 431.994 192.783 431.622C191.811 431.238 190.947 430.698 190.191 430.002L191.685 428.13C192.417 428.778 193.119 429.246 193.791 429.534C194.475 429.822 195.195 429.966 195.951 429.966C196.479 429.966 196.935 429.906 197.319 429.786C197.703 429.654 197.997 429.468 198.201 429.228C198.417 428.988 198.525 428.706 198.525 428.382C198.525 427.95 198.369 427.62 198.057 427.392C197.745 427.152 197.211 426.966 196.455 426.834L193.953 426.402C192.885 426.222 192.069 425.844 191.505 425.268C190.953 424.692 190.677 423.948 190.677 423.036C190.677 422.256 190.875 421.578 191.271 421.002C191.679 420.426 192.249 419.988 192.981 419.688C193.725 419.376 194.607 419.22 195.627 419.22C196.551 419.22 197.469 419.376 198.381 419.688C199.305 420 200.121 420.432 200.829 420.984L199.425 422.928C198.105 421.92 196.779 421.416 195.447 421.416C194.979 421.416 194.571 421.476 194.223 421.596C193.875 421.716 193.605 421.884 193.413 422.1C193.233 422.304 193.143 422.55 193.143 422.838C193.143 423.222 193.281 423.522 193.557 423.738C193.833 423.942 194.295 424.098 194.943 424.206L197.319 424.602C198.579 424.806 199.521 425.208 200.145 425.808C200.769 426.396 201.081 427.176 201.081 428.148C201.081 428.964 200.865 429.678 200.433 430.29C200.001 430.89 199.383 431.358 198.579 431.694C197.787 432.018 196.851 432.18 195.771 432.18ZM205.801 432V421.704H201.553V419.4H212.641V421.704H208.411V432H205.801ZM214.105 432V419.4H220.261C221.113 419.4 221.863 419.568 222.511 419.904C223.171 420.228 223.681 420.684 224.041 421.272C224.413 421.86 224.599 422.538 224.599 423.306C224.599 424.11 224.377 424.818 223.933 425.43C223.489 426.042 222.895 426.498 222.151 426.798L224.941 432H222.025L219.559 427.176H216.715V432H214.105ZM216.715 425.034H220.027C220.615 425.034 221.083 424.878 221.431 424.566C221.791 424.254 221.971 423.846 221.971 423.342C221.971 422.838 221.791 422.43 221.431 422.118C221.083 421.806 220.615 421.65 220.027 421.65H216.715V425.034ZM225.291 432L230.475 419.4H233.481L238.611 432H235.785L234.507 428.688H229.305L228.009 432H225.291ZM230.115 426.6H233.715L231.915 421.956L230.115 426.6ZM239.681 432V419.4H245.837C246.689 419.4 247.439 419.568 248.087 419.904C248.747 420.228 249.257 420.684 249.617 421.272C249.989 421.86 250.175 422.538 250.175 423.306C250.175 424.11 249.953 424.818 249.509 425.43C249.065 426.042 248.471 426.498 247.727 426.798L250.517 432H247.601L245.135 427.176H242.291V432H239.681ZM242.291 425.034H245.603C246.191 425.034 246.659 424.878 247.007 424.566C247.367 424.254 247.547 423.846 247.547 423.342C247.547 422.838 247.367 422.43 247.007 422.118C246.659 421.806 246.191 421.65 245.603 421.65H242.291V425.034Z" fill="white"/>
<path d="M142.716 431.694L142.335 432.619L142.347 432.623L142.716 431.694ZM140.574 430.308L139.874 431.022L139.881 431.029L140.574 430.308ZM139.152 428.256L138.231 428.647L138.235 428.655L138.239 428.663L139.152 428.256ZM139.152 423.144L138.236 422.742L138.234 422.748L139.152 423.144ZM140.592 421.074L139.899 420.353H139.899L140.592 421.074ZM142.716 419.706L143.09 420.634L143.097 420.631L142.716 419.706ZM147.36 419.49L147.644 418.531L147.644 418.531L147.36 419.49ZM149.16 420.3L148.627 421.146L148.635 421.151L149.16 420.3ZM150.6 421.56L151.303 422.271L151.945 421.636L151.379 420.933L150.6 421.56ZM148.836 423.306L148.058 423.935L148.754 424.795L149.539 424.017L148.836 423.306ZM147.252 422.028L146.812 422.926L146.819 422.93L147.252 422.028ZM143.76 421.92L144.143 422.844L144.153 422.84L144.162 422.836L143.76 421.92ZM142.482 422.784L143.189 423.491L143.195 423.485L143.201 423.479L142.482 422.784ZM141.636 424.08L142.56 424.463L142.563 424.455L141.636 424.08ZM141.636 427.32L140.709 427.695L140.712 427.703L141.636 427.32ZM142.5 428.616L141.793 429.323L141.799 429.329L141.805 429.335L142.5 428.616ZM143.796 429.462L143.413 430.386L143.421 430.389L143.796 429.462ZM147.288 429.354L147.72 430.256H147.72L147.288 429.354ZM148.818 428.166L149.521 427.455L148.759 426.701L148.06 427.514L148.818 428.166ZM150.528 429.858L151.299 430.494L151.881 429.79L151.231 429.147L150.528 429.858ZM149.106 431.1L149.639 431.946L149.106 431.1ZM147.306 431.91L147.578 432.872L147.59 432.869L147.306 431.91ZM145.344 431.18C144.526 431.18 143.776 431.039 143.085 430.765L142.347 432.623C143.288 432.997 144.29 433.18 145.344 433.18V431.18ZM143.097 430.769C142.392 430.479 141.785 430.085 141.267 429.587L139.881 431.029C140.587 431.707 141.408 432.237 142.335 432.619L143.097 430.769ZM141.274 429.594C140.765 429.095 140.363 428.516 140.065 427.849L138.239 428.663C138.637 429.556 139.183 430.345 139.874 431.022L141.274 429.594ZM140.073 427.865C139.792 427.204 139.648 426.486 139.648 425.7H137.648C137.648 426.738 137.84 427.724 138.231 428.647L140.073 427.865ZM139.648 425.7C139.648 424.9 139.793 424.184 140.07 423.54L138.234 422.748C137.839 423.664 137.648 424.652 137.648 425.7H139.648ZM140.068 423.546C140.364 422.872 140.769 422.291 141.285 421.795L139.899 420.353C139.191 421.033 138.636 421.832 138.236 422.742L140.068 423.546ZM141.285 421.795C141.803 421.298 142.402 420.911 143.09 420.634L142.342 418.778C141.422 419.149 140.605 419.674 139.899 420.353L141.285 421.795ZM143.097 420.631C143.785 420.347 144.531 420.202 145.344 420.202V418.202C144.285 418.202 143.279 418.393 142.335 418.781L143.097 420.631ZM145.344 420.202C145.947 420.202 146.523 420.285 147.076 420.449L147.644 418.531C146.901 418.311 146.133 418.202 145.344 418.202V420.202ZM147.076 420.449C147.639 420.616 148.155 420.849 148.627 421.146L149.693 419.454C149.061 419.055 148.377 418.748 147.644 418.531L147.076 420.449ZM148.635 421.151C149.107 421.442 149.5 421.788 149.821 422.187L151.379 420.933C150.908 420.348 150.341 419.854 149.685 419.449L148.635 421.151ZM149.897 420.849L148.133 422.595L149.539 424.017L151.303 422.271L149.897 420.849ZM149.614 422.677C149.073 422.008 148.43 421.484 147.685 421.126L146.819 422.93C147.274 423.148 147.687 423.476 148.058 423.935L149.614 422.677ZM147.692 421.13C146.961 420.772 146.173 420.596 145.344 420.596V422.596C145.883 422.596 146.367 422.708 146.812 422.926L147.692 421.13ZM145.344 420.596C144.649 420.596 143.983 420.73 143.358 421.004L144.162 422.836C144.521 422.678 144.911 422.596 145.344 422.596V420.596ZM143.377 420.996C142.762 421.251 142.221 421.615 141.763 422.089L143.201 423.479C143.463 423.209 143.774 422.997 144.143 422.844L143.377 420.996ZM141.775 422.077C141.314 422.538 140.96 423.085 140.709 423.705L142.563 424.455C142.72 424.067 142.93 423.75 143.189 423.491L141.775 422.077ZM140.712 423.697C140.453 424.322 140.33 424.994 140.33 425.7H142.33C142.33 425.23 142.411 424.822 142.56 424.463L140.712 423.697ZM140.33 425.7C140.33 426.397 140.454 427.065 140.709 427.695L142.563 426.945C142.41 426.567 142.33 426.155 142.33 425.7H140.33ZM140.712 427.703C140.966 428.315 141.327 428.857 141.793 429.323L143.207 427.909C142.929 427.631 142.714 427.309 142.56 426.937L140.712 427.703ZM141.805 429.335C142.27 429.785 142.808 430.135 143.413 430.386L144.179 428.538C143.8 428.381 143.474 428.167 143.195 427.897L141.805 429.335ZM143.421 430.389C144.053 430.645 144.728 430.768 145.434 430.768V428.768C144.964 428.768 144.547 428.687 144.171 428.535L143.421 430.389ZM145.434 430.768C146.238 430.768 147.005 430.599 147.72 430.256L146.856 428.452C146.419 428.661 145.95 428.768 145.434 428.768V430.768ZM147.72 430.256C148.429 429.916 149.048 429.432 149.576 428.818L148.06 427.514C147.7 427.932 147.299 428.24 146.856 428.452L147.72 430.256ZM148.115 428.877L149.825 430.569L151.231 429.147L149.521 427.455L148.115 428.877ZM149.757 429.222C149.432 429.616 149.039 429.96 148.573 430.254L149.639 431.946C150.277 431.544 150.832 431.06 151.299 430.494L149.757 429.222ZM148.573 430.254C148.101 430.551 147.585 430.784 147.022 430.951L147.59 432.869C148.323 432.652 149.007 432.345 149.639 431.946L148.573 430.254ZM147.034 430.948C146.488 431.102 145.925 431.18 145.344 431.18V433.18C146.107 433.18 146.852 433.078 147.578 432.872L147.034 430.948ZM150.848 432L149.923 431.62L149.355 433H150.848V432ZM156.032 419.4V418.4H155.362L155.107 419.02L156.032 419.4ZM159.038 419.4L159.964 419.023L159.71 418.4H159.038V419.4ZM164.168 432V433H165.655L165.094 431.623L164.168 432ZM161.342 432L160.409 432.36L160.656 433H161.342V432ZM160.064 428.688L160.997 428.328L160.75 427.688H160.064V428.688ZM154.862 428.688V427.688H154.179L153.931 428.324L154.862 428.688ZM153.566 432V433H154.248L154.497 432.364L153.566 432ZM155.672 426.6L154.74 426.239L154.212 427.6H155.672V426.6ZM159.272 426.6V427.6H160.732L160.204 426.239L159.272 426.6ZM157.472 421.956L158.404 421.595L157.472 419.189L156.54 421.595L157.472 421.956ZM151.773 432.38L156.957 419.78L155.107 419.02L149.923 431.62L151.773 432.38ZM156.032 420.4H159.038V418.4H156.032V420.4ZM158.112 419.777L163.242 432.377L165.094 431.623L159.964 419.023L158.112 419.777ZM164.168 431H161.342V433H164.168V431ZM162.275 431.64L160.997 428.328L159.131 429.048L160.409 432.36L162.275 431.64ZM160.064 427.688H154.862V429.688H160.064V427.688ZM153.931 428.324L152.635 431.636L154.497 432.364L155.793 429.052L153.931 428.324ZM153.566 431H150.848V433H153.566V431ZM155.672 427.6H159.272V425.6H155.672V427.6ZM160.204 426.239L158.404 421.595L156.54 422.317L158.34 426.961L160.204 426.239ZM156.54 421.595L154.74 426.239L156.604 426.961L158.404 422.317L156.54 421.595ZM167.848 429.678H166.848V430.678H167.848V429.678ZM171.61 429.39L171.981 430.319L171.993 430.314L171.61 429.39ZM172.888 428.544L172.192 427.825L172.186 427.831L172.18 427.837L172.888 428.544ZM173.734 427.284L172.813 426.893L172.809 426.903L172.805 426.913L173.734 427.284ZM173.734 424.152L172.81 424.535L172.813 424.543L173.734 424.152ZM172.888 422.874L173.595 422.167V422.167L172.888 422.874ZM171.61 422.028L171.218 422.948L171.227 422.952L171.61 422.028ZM167.848 421.722V420.722H166.848V421.722H167.848ZM165.238 432H164.238V433H165.238V432ZM165.238 419.4V418.4H164.238V419.4H165.238ZM172.708 419.886L172.334 420.814L172.346 420.818L172.708 419.886ZM174.814 421.218L175.506 420.497V420.497L174.814 421.218ZM176.218 423.234L175.301 423.635L175.307 423.647L176.218 423.234ZM174.814 430.2L175.498 430.929L175.499 430.928L174.814 430.2ZM172.708 431.532L173.069 432.464L173.081 432.46L172.708 431.532ZM167.848 430.678H170.044V428.678H167.848V430.678ZM170.044 430.678C170.723 430.678 171.372 430.562 171.981 430.318L171.238 428.462C170.887 428.602 170.492 428.678 170.044 428.678V430.678ZM171.993 430.314C172.6 430.062 173.138 429.708 173.595 429.251L172.18 427.837C171.917 428.1 171.603 428.31 171.227 428.466L171.993 430.314ZM173.583 429.263C174.056 428.805 174.418 428.266 174.662 427.655L172.805 426.913C172.665 427.262 172.463 427.563 172.192 427.825L173.583 429.263ZM174.654 427.675C174.915 427.062 175.04 426.405 175.04 425.718H173.04C173.04 426.159 172.96 426.546 172.813 426.893L174.654 427.675ZM175.04 425.718C175.04 425.031 174.915 424.374 174.654 423.761L172.813 424.543C172.96 424.89 173.04 425.277 173.04 425.718H175.04ZM174.657 423.769C174.405 423.161 174.052 422.624 173.595 422.167L172.18 423.581C172.443 423.844 172.654 424.159 172.81 424.535L174.657 423.769ZM173.595 422.167C173.138 421.71 172.6 421.356 171.993 421.104L171.227 422.952C171.603 423.108 171.917 423.318 172.18 423.581L173.595 422.167ZM172.001 421.108C171.387 420.847 170.731 420.722 170.044 420.722V422.722C170.484 422.722 170.872 422.801 171.218 422.948L172.001 421.108ZM170.044 420.722H167.848V422.722H170.044V420.722ZM166.848 421.722V429.678H168.848V421.722H166.848ZM166.238 432V419.4H164.238V432H166.238ZM165.238 420.4H170.08V418.4H165.238V420.4ZM170.08 420.4C170.911 420.4 171.659 420.542 172.334 420.814L173.081 418.958C172.148 418.582 171.144 418.4 170.08 418.4V420.4ZM172.346 420.818C173.031 421.084 173.62 421.458 174.121 421.939L175.506 420.497C174.807 419.826 173.992 419.312 173.069 418.954L172.346 420.818ZM174.121 421.939C174.625 422.424 175.018 422.986 175.301 423.635L177.134 422.833C176.745 421.946 176.202 421.164 175.506 420.497L174.121 421.939ZM175.307 423.647C175.593 424.278 175.74 424.965 175.74 425.718H177.74C177.74 424.695 177.538 423.726 177.128 422.821L175.307 423.647ZM175.74 425.718C175.74 426.491 175.596 427.179 175.322 427.796L177.149 428.608C177.547 427.713 177.74 426.745 177.74 425.718H175.74ZM175.322 427.796C175.041 428.428 174.645 428.985 174.128 429.472L175.499 430.928C176.206 430.263 176.758 429.488 177.149 428.608L175.322 427.796ZM174.129 429.471C173.624 429.946 173.029 430.324 172.334 430.604L173.081 432.46C173.994 432.092 174.803 431.582 175.498 430.929L174.129 429.471ZM172.346 430.6C171.668 430.863 170.916 431 170.08 431V433C171.139 433 172.139 432.825 173.069 432.464L172.346 430.6ZM170.08 431H165.238V433H170.08V431ZM176.617 432L175.693 431.62L175.125 433H176.617V432ZM181.801 419.4V418.4H181.132L180.877 419.02L181.801 419.4ZM184.807 419.4L185.734 419.023L185.48 418.4H184.807V419.4ZM189.937 432V433H191.424L190.864 431.623L189.937 432ZM187.111 432L186.179 432.36L186.425 433H187.111V432ZM185.833 428.688L186.766 428.328L186.519 427.688H185.833V428.688ZM180.631 428.688V427.688H179.949L179.7 428.324L180.631 428.688ZM179.335 432V433H180.018L180.267 432.364L179.335 432ZM181.441 426.6L180.509 426.239L179.981 427.6H181.441V426.6ZM185.041 426.6V427.6H186.502L185.974 426.239L185.041 426.6ZM183.241 421.956L184.174 421.595L183.241 419.189L182.309 421.595L183.241 421.956ZM177.542 432.38L182.726 419.78L180.877 419.02L175.693 431.62L177.542 432.38ZM181.801 420.4H184.807V418.4H181.801V420.4ZM183.881 419.777L189.011 432.377L190.864 431.623L185.734 419.023L183.881 419.777ZM189.937 431H187.111V433H189.937V431ZM188.044 431.64L186.766 428.328L184.901 429.048L186.179 432.36L188.044 431.64ZM185.833 427.688H180.631V429.688H185.833V427.688ZM179.7 428.324L178.404 431.636L180.267 432.364L181.563 429.052L179.7 428.324ZM179.335 431H176.617V433H179.335V431ZM181.441 427.6H185.041V425.6H181.441V427.6ZM185.974 426.239L184.174 421.595L182.309 422.317L184.109 426.961L185.974 426.239ZM182.309 421.595L180.509 426.239L182.374 426.961L184.174 422.317L182.309 421.595ZM192.783 431.622L192.415 432.552L192.425 432.556L192.783 431.622ZM190.191 430.002L189.409 429.378L188.828 430.107L189.513 430.738L190.191 430.002ZM191.685 428.13L192.348 427.381L191.56 426.684L190.903 427.506L191.685 428.13ZM193.791 429.534L193.397 430.453L193.403 430.456L193.791 429.534ZM197.319 429.786L197.617 430.74L197.63 430.736L197.644 430.732L197.319 429.786ZM198.201 429.228L197.457 428.559L197.448 428.57L197.439 428.58L198.201 429.228ZM198.057 427.392L197.447 428.185L197.457 428.192L197.467 428.199L198.057 427.392ZM196.455 426.834L196.627 425.849L196.625 425.849L196.455 426.834ZM193.953 426.402L194.123 425.417L194.119 425.416L193.953 426.402ZM191.505 425.268L190.783 425.96L190.79 425.968L191.505 425.268ZM191.271 421.002L190.455 420.424L190.447 420.435L191.271 421.002ZM192.981 419.688L193.36 420.613L193.367 420.61L192.981 419.688ZM198.381 419.688L198.057 420.634L198.061 420.635L198.381 419.688ZM200.829 420.984L201.639 421.569L202.204 420.788L201.444 420.195L200.829 420.984ZM199.425 422.928L198.818 423.723L199.634 424.346L200.235 423.513L199.425 422.928ZM193.413 422.1L192.665 421.436L192.663 421.438L193.413 422.1ZM193.557 423.738L192.94 424.526L192.951 424.534L192.962 424.542L193.557 423.738ZM194.943 424.206L195.107 423.22L194.943 424.206ZM197.319 424.602L197.154 425.588L197.159 425.589L197.319 424.602ZM200.145 425.808L199.452 426.529L199.459 426.536L200.145 425.808ZM200.433 430.29L201.244 430.874L201.25 430.867L200.433 430.29ZM198.579 431.694L198.957 432.62L198.964 432.617L198.579 431.694ZM195.771 431.18C194.875 431.18 194 431.017 193.14 430.688L192.425 432.556C193.509 432.971 194.626 433.18 195.771 433.18V431.18ZM193.15 430.692C192.291 430.352 191.532 429.878 190.868 429.266L189.513 430.738C190.361 431.518 191.331 432.124 192.415 432.552L193.15 430.692ZM190.972 430.626L192.466 428.754L190.903 427.506L189.409 429.378L190.972 430.626ZM191.022 428.879C191.809 429.575 192.6 430.112 193.397 430.453L194.185 428.615C193.638 428.38 193.025 427.981 192.348 427.381L191.022 428.879ZM193.403 430.456C194.212 430.796 195.064 430.966 195.951 430.966V428.966C195.325 428.966 194.738 428.848 194.179 428.612L193.403 430.456ZM195.951 430.966C196.55 430.966 197.112 430.898 197.617 430.74L197.02 428.832C196.758 428.914 196.407 428.966 195.951 428.966V430.966ZM197.644 430.732C198.149 430.558 198.613 430.287 198.963 429.876L197.439 428.58C197.38 428.649 197.256 428.75 196.994 428.84L197.644 430.732ZM198.944 429.897C199.326 429.473 199.525 428.952 199.525 428.382H197.525C197.525 428.46 197.508 428.503 197.457 428.559L198.944 429.897ZM199.525 428.382C199.525 427.674 199.25 427.025 198.647 426.585L197.467 428.199C197.496 428.221 197.501 428.233 197.504 428.238C197.508 428.247 197.525 428.287 197.525 428.382H199.525ZM198.666 426.599C198.154 426.205 197.418 425.987 196.627 425.849L196.283 427.819C197.003 427.945 197.335 428.099 197.447 428.185L198.666 426.599ZM196.625 425.849L194.123 425.417L193.783 427.387L196.285 427.819L196.625 425.849ZM194.119 425.416C193.189 425.259 192.592 424.949 192.219 424.568L190.79 425.968C191.545 426.739 192.581 427.185 193.787 427.388L194.119 425.416ZM192.227 424.576C191.879 424.213 191.677 423.73 191.677 423.036H189.677C189.677 424.166 190.027 425.171 190.783 425.96L192.227 424.576ZM191.677 423.036C191.677 422.434 191.826 421.959 192.095 421.569L190.447 420.435C189.923 421.197 189.677 422.078 189.677 423.036H191.677ZM192.087 421.58C192.372 421.177 192.782 420.85 193.36 420.613L192.601 418.763C191.716 419.126 190.985 419.675 190.455 420.424L192.087 421.58ZM193.367 420.61C193.961 420.361 194.706 420.22 195.627 420.22V418.22C194.508 418.22 193.488 418.391 192.594 418.766L193.367 420.61ZM195.627 420.22C196.436 420.22 197.245 420.356 198.057 420.634L198.704 418.742C197.693 418.396 196.666 418.22 195.627 418.22V420.22ZM198.061 420.635C198.887 420.915 199.602 421.296 200.214 421.773L201.444 420.195C200.64 419.568 199.722 419.085 198.701 418.741L198.061 420.635ZM200.018 420.399L198.614 422.343L200.235 423.513L201.639 421.569L200.018 420.399ZM200.032 422.133C198.581 421.026 197.047 420.416 195.447 420.416V422.416C196.51 422.416 197.628 422.814 198.818 423.723L200.032 422.133ZM195.447 420.416C194.896 420.416 194.374 420.486 193.897 420.651L194.549 422.541C194.768 422.466 195.061 422.416 195.447 422.416V420.416ZM193.897 420.651C193.43 420.812 192.998 421.061 192.665 421.436L194.16 422.764C194.211 422.707 194.319 422.62 194.549 422.541L193.897 420.651ZM192.663 421.438C192.312 421.836 192.143 422.322 192.143 422.838H194.143C194.143 422.8 194.148 422.784 194.149 422.781C194.15 422.779 194.151 422.777 194.152 422.775C194.153 422.773 194.156 422.769 194.163 422.762L192.663 421.438ZM192.143 422.838C192.143 423.496 192.397 424.1 192.94 424.526L194.173 422.95C194.161 422.941 194.156 422.935 194.156 422.934C194.155 422.934 194.155 422.934 194.155 422.933C194.154 422.932 194.152 422.926 194.149 422.912C194.146 422.898 194.143 422.874 194.143 422.838H192.143ZM192.962 424.542C193.435 424.892 194.092 425.078 194.778 425.192L195.107 423.22C194.497 423.118 194.23 422.992 194.151 422.934L192.962 424.542ZM194.778 425.192L197.154 425.588L197.483 423.616L195.107 423.22L194.778 425.192ZM197.159 425.589C198.308 425.775 199.029 426.122 199.452 426.529L200.838 425.087C200.013 424.294 198.849 423.837 197.479 423.615L197.159 425.589ZM199.459 426.536C199.855 426.909 200.081 427.411 200.081 428.148H202.081C202.081 426.941 201.683 425.883 200.831 425.08L199.459 426.536ZM200.081 428.148C200.081 428.777 199.918 429.285 199.616 429.713L201.25 430.867C201.811 430.071 202.081 429.151 202.081 428.148H200.081ZM199.621 429.706C199.315 430.131 198.857 430.494 198.193 430.771L198.964 432.617C199.908 432.222 200.686 431.649 201.244 430.874L199.621 429.706ZM198.2 430.768C197.555 431.032 196.754 431.18 195.771 431.18V433.18C196.948 433.18 198.018 433.004 198.957 432.62L198.2 430.768ZM205.801 432H204.801V433H205.801V432ZM205.801 421.704H206.801V420.704H205.801V421.704ZM201.553 421.704H200.553V422.704H201.553V421.704ZM201.553 419.4V418.4H200.553V419.4H201.553ZM212.641 419.4H213.641V418.4H212.641V419.4ZM212.641 421.704V422.704H213.641V421.704H212.641ZM208.411 421.704V420.704H207.411V421.704H208.411ZM208.411 432V433H209.411V432H208.411ZM206.801 432V421.704H204.801V432H206.801ZM205.801 420.704H201.553V422.704H205.801V420.704ZM202.553 421.704V419.4H200.553V421.704H202.553ZM201.553 420.4H212.641V418.4H201.553V420.4ZM211.641 419.4V421.704H213.641V419.4H211.641ZM212.641 420.704H208.411V422.704H212.641V420.704ZM207.411 421.704V432H209.411V421.704H207.411ZM208.411 431H205.801V433H208.411V431ZM214.105 432H213.105V433H214.105V432ZM214.105 419.4V418.4H213.105V419.4H214.105ZM222.511 419.904L222.05 420.792L222.06 420.797L222.07 420.802L222.511 419.904ZM224.041 421.272L223.188 421.794L223.192 421.8L223.196 421.807L224.041 421.272ZM222.151 426.798L221.777 425.871L220.742 426.288L221.269 427.271L222.151 426.798ZM224.941 432V433H226.612L225.822 431.527L224.941 432ZM222.025 432L221.134 432.455L221.413 433H222.025V432ZM219.559 427.176L220.449 426.721L220.171 426.176H219.559V427.176ZM216.715 427.176V426.176H215.715V427.176H216.715ZM216.715 432V433H217.715V432H216.715ZM216.715 425.034H215.715V426.034H216.715V425.034ZM221.431 424.566L220.776 423.81L220.769 423.816L220.763 423.821L221.431 424.566ZM221.431 422.118L220.763 422.863L220.769 422.868L220.776 422.874L221.431 422.118ZM216.715 421.65V420.65H215.715V421.65H216.715ZM215.105 432V419.4H213.105V432H215.105ZM214.105 420.4H220.261V418.4H214.105V420.4ZM220.261 420.4C220.979 420.4 221.567 420.541 222.05 420.792L222.971 419.016C222.159 418.595 221.246 418.4 220.261 418.4V420.4ZM222.07 420.802C222.572 421.048 222.934 421.379 223.188 421.794L224.894 420.75C224.428 419.989 223.77 419.408 222.951 419.006L222.07 420.802ZM223.196 421.807C223.456 422.218 223.599 422.707 223.599 423.306H225.599C225.599 422.369 225.369 421.502 224.886 420.737L223.196 421.807ZM223.599 423.306C223.599 423.913 223.435 424.413 223.123 424.843L224.742 426.017C225.318 425.223 225.599 424.307 225.599 423.306H223.599ZM223.123 424.843C222.796 425.293 222.358 425.636 221.777 425.871L222.525 427.725C223.432 427.36 224.181 426.791 224.742 426.017L223.123 424.843ZM221.269 427.271L224.059 432.473L225.822 431.527L223.032 426.325L221.269 427.271ZM224.941 431H222.025V433H224.941V431ZM222.915 431.545L220.449 426.721L218.668 427.631L221.134 432.455L222.915 431.545ZM219.559 426.176H216.715V428.176H219.559V426.176ZM215.715 427.176V432H217.715V427.176H215.715ZM216.715 431H214.105V433H216.715V431ZM216.715 426.034H220.027V424.034H216.715V426.034ZM220.027 426.034C220.795 426.034 221.523 425.826 222.098 425.311L220.763 423.821C220.642 423.93 220.434 424.034 220.027 424.034V426.034ZM222.086 425.322C222.679 424.808 222.971 424.117 222.971 423.342H220.971C220.971 423.575 220.903 423.7 220.776 423.81L222.086 425.322ZM222.971 423.342C222.971 422.567 222.679 421.876 222.086 421.362L220.776 422.874C220.903 422.984 220.971 423.109 220.971 423.342H222.971ZM222.098 421.373C221.523 420.858 220.795 420.65 220.027 420.65V422.65C220.434 422.65 220.642 422.754 220.763 422.863L222.098 421.373ZM220.027 420.65H216.715V422.65H220.027V420.65ZM215.715 421.65V425.034H217.715V421.65H215.715ZM225.291 432L224.366 431.62L223.799 433H225.291V432ZM230.475 419.4V418.4H229.805L229.55 419.02L230.475 419.4ZM233.481 419.4L234.407 419.023L234.154 418.4H233.481V419.4ZM238.611 432V433H240.098L239.537 431.623L238.611 432ZM235.785 432L234.852 432.36L235.099 433H235.785V432ZM234.507 428.688L235.44 428.328L235.193 427.688H234.507V428.688ZM229.305 428.688V427.688H228.623L228.374 428.324L229.305 428.688ZM228.009 432V433H228.692L228.941 432.364L228.009 432ZM230.115 426.6L229.183 426.239L228.655 427.6H230.115V426.6ZM233.715 426.6V427.6H235.175L234.648 426.239L233.715 426.6ZM231.915 421.956L232.848 421.595L231.915 419.189L230.983 421.595L231.915 421.956ZM226.216 432.38L231.4 419.78L229.55 419.02L224.366 431.62L226.216 432.38ZM230.475 420.4H233.481V418.4H230.475V420.4ZM232.555 419.777L237.685 432.377L239.537 431.623L234.407 419.023L232.555 419.777ZM238.611 431H235.785V433H238.611V431ZM236.718 431.64L235.44 428.328L233.574 429.048L234.852 432.36L236.718 431.64ZM234.507 427.688H229.305V429.688H234.507V427.688ZM228.374 428.324L227.078 431.636L228.941 432.364L230.237 429.052L228.374 428.324ZM228.009 431H225.291V433H228.009V431ZM230.115 427.6H233.715V425.6H230.115V427.6ZM234.648 426.239L232.848 421.595L230.983 422.317L232.783 426.961L234.648 426.239ZM230.983 421.595L229.183 426.239L231.048 426.961L232.848 422.317L230.983 421.595ZM239.681 432H238.681V433H239.681V432ZM239.681 419.4V418.4H238.681V419.4H239.681ZM248.087 419.904L247.627 420.792L247.636 420.797L247.646 420.802L248.087 419.904ZM249.617 421.272L248.764 421.794L248.768 421.8L248.772 421.807L249.617 421.272ZM247.727 426.798L247.353 425.871L246.318 426.288L246.846 427.271L247.727 426.798ZM250.517 432V433H252.188L251.398 431.527L250.517 432ZM247.601 432L246.71 432.455L246.989 433H247.601V432ZM245.135 427.176L246.025 426.721L245.747 426.176H245.135V427.176ZM242.291 427.176V426.176H241.291V427.176H242.291ZM242.291 432V433H243.291V432H242.291ZM242.291 425.034H241.291V426.034H242.291V425.034ZM247.007 424.566L246.352 423.81L246.346 423.816L246.339 423.821L247.007 424.566ZM247.007 422.118L246.339 422.863L246.346 422.868L246.352 422.874L247.007 422.118ZM242.291 421.65V420.65H241.291V421.65H242.291ZM240.681 432V419.4H238.681V432H240.681ZM239.681 420.4H245.837V418.4H239.681V420.4ZM245.837 420.4C246.555 420.4 247.143 420.541 247.627 420.792L248.547 419.016C247.735 418.595 246.822 418.4 245.837 418.4V420.4ZM247.646 420.802C248.148 421.048 248.51 421.379 248.764 421.794L250.47 420.75C250.004 419.989 249.346 419.408 248.528 419.006L247.646 420.802ZM248.772 421.807C249.032 422.218 249.175 422.707 249.175 423.306H251.175C251.175 422.369 250.945 421.502 250.462 420.737L248.772 421.807ZM249.175 423.306C249.175 423.913 249.012 424.413 248.699 424.843L250.318 426.017C250.894 425.223 251.175 424.307 251.175 423.306H249.175ZM248.699 424.843C248.373 425.293 247.934 425.636 247.353 425.871L248.101 427.725C249.008 427.36 249.757 426.791 250.318 426.017L248.699 424.843ZM246.846 427.271L249.636 432.473L251.398 431.527L248.608 426.325L246.846 427.271ZM250.517 431H247.601V433H250.517V431ZM248.491 431.545L246.025 426.721L244.244 427.631L246.71 432.455L248.491 431.545ZM245.135 426.176H242.291V428.176H245.135V426.176ZM241.291 427.176V432H243.291V427.176H241.291ZM242.291 431H239.681V433H242.291V431ZM242.291 426.034H245.603V424.034H242.291V426.034ZM245.603 426.034C246.371 426.034 247.099 425.826 247.674 425.311L246.339 423.821C246.219 423.93 246.01 424.034 245.603 424.034V426.034ZM247.662 425.322C248.255 424.808 248.547 424.117 248.547 423.342H246.547C246.547 423.575 246.479 423.7 246.352 423.81L247.662 425.322ZM248.547 423.342C248.547 422.567 248.255 421.876 247.662 421.362L246.352 422.874C246.479 422.984 246.547 423.109 246.547 423.342H248.547ZM247.674 421.373C247.099 420.858 246.371 420.65 245.603 420.65V422.65C246.01 422.65 246.219 422.754 246.339 422.863L247.674 421.373ZM245.603 420.65H242.291V422.65H245.603V420.65ZM241.291 421.65V425.034H243.291V421.65H241.291Z" fill="black"/>
</g>
<path d="M129.432 201.192C128.76 201.192 128.131 201.032 127.544 200.712C126.968 200.381 126.499 199.907 126.136 199.288C125.773 198.669 125.592 197.923 125.592 197.048C125.592 196.173 125.773 195.427 126.136 194.808C126.499 194.189 126.968 193.715 127.544 193.384C128.131 193.053 128.76 192.888 129.432 192.888C130.093 192.888 130.712 193.053 131.288 193.384C131.875 193.715 132.349 194.189 132.712 194.808C133.075 195.427 133.256 196.173 133.256 197.048C133.256 197.923 133.075 198.669 132.712 199.288C132.349 199.907 131.875 200.381 131.288 200.712C130.712 201.032 130.093 201.192 129.432 201.192ZM129.432 199.416C129.773 199.416 130.061 199.32 130.296 199.128C130.531 198.936 130.707 198.664 130.824 198.312C130.941 197.949 131 197.528 131 197.048C131 196.568 130.941 196.152 130.824 195.8C130.707 195.437 130.531 195.16 130.296 194.968C130.061 194.765 129.773 194.664 129.432 194.664C129.08 194.664 128.787 194.765 128.552 194.968C128.317 195.16 128.141 195.437 128.024 195.8C127.907 196.152 127.848 196.568 127.848 197.048C127.848 197.528 127.907 197.949 128.024 198.312C128.141 198.664 128.317 198.936 128.552 199.128C128.787 199.32 129.08 199.416 129.432 199.416ZM137.284 201.192C136.441 201.192 135.822 200.909 135.428 200.344C135.033 199.779 134.836 199 134.836 198.008V193.08H137.028V197.736C137.028 198.333 137.113 198.749 137.284 198.984C137.465 199.208 137.737 199.32 138.1 199.32C138.409 199.32 138.676 199.251 138.9 199.112C139.124 198.963 139.358 198.717 139.604 198.376V193.08H141.796V201H140.004L139.844 199.88H139.796C139.454 200.285 139.086 200.605 138.692 200.84C138.297 201.075 137.828 201.192 137.284 201.192ZM150.574 201.192C149.848 201.192 149.192 201.032 148.606 200.712C148.019 200.381 147.55 199.907 147.198 199.288C146.856 198.669 146.686 197.923 146.686 197.048C146.686 196.173 146.878 195.427 147.262 194.808C147.646 194.189 148.147 193.715 148.766 193.384C149.384 193.053 150.051 192.888 150.766 192.888C151.256 192.888 151.694 192.973 152.078 193.144C152.462 193.304 152.798 193.507 153.086 193.752L152.03 195.176C151.838 194.995 151.651 194.867 151.47 194.792C151.299 194.707 151.107 194.664 150.894 194.664C150.499 194.664 150.152 194.765 149.854 194.968C149.566 195.16 149.342 195.437 149.182 195.8C149.022 196.152 148.942 196.568 148.942 197.048C148.942 197.528 149.022 197.949 149.182 198.312C149.342 198.664 149.56 198.936 149.838 199.128C150.126 199.32 150.451 199.416 150.814 199.416C151.091 199.416 151.358 199.357 151.614 199.24C151.87 199.123 152.099 198.979 152.302 198.808L153.182 200.248C152.798 200.579 152.376 200.819 151.918 200.968C151.459 201.117 151.011 201.192 150.574 201.192ZM156.587 201.192C156.118 201.192 155.707 201.091 155.355 200.888C155.003 200.675 154.726 200.392 154.523 200.04C154.331 199.677 154.235 199.272 154.235 198.824C154.235 197.992 154.592 197.341 155.307 196.872C156.022 196.403 157.174 196.083 158.763 195.912C158.752 195.667 158.699 195.448 158.603 195.256C158.518 195.064 158.379 194.915 158.187 194.808C158.006 194.701 157.76 194.648 157.451 194.648C157.099 194.648 156.747 194.717 156.395 194.856C156.054 194.984 155.696 195.16 155.323 195.384L154.523 193.928C154.843 193.736 155.184 193.56 155.547 193.4C155.91 193.24 156.283 193.117 156.667 193.032C157.051 192.936 157.451 192.888 157.867 192.888C158.539 192.888 159.104 193.021 159.563 193.288C160.022 193.555 160.368 193.949 160.603 194.472C160.838 194.984 160.955 195.635 160.955 196.424V201H159.163L159.003 200.168H158.939C158.608 200.467 158.246 200.712 157.851 200.904C157.467 201.096 157.046 201.192 156.587 201.192ZM157.323 199.496C157.611 199.496 157.862 199.432 158.075 199.304C158.299 199.165 158.528 198.984 158.763 198.76V197.256C158.155 197.331 157.675 197.437 157.323 197.576C156.971 197.704 156.72 197.864 156.571 198.056C156.422 198.237 156.347 198.435 156.347 198.648C156.347 198.936 156.438 199.149 156.619 199.288C156.8 199.427 157.035 199.496 157.323 199.496ZM165.826 201.192C164.844 201.192 164.055 200.824 163.458 200.088C162.871 199.352 162.578 198.339 162.578 197.048C162.578 196.184 162.732 195.443 163.042 194.824C163.362 194.205 163.772 193.731 164.274 193.4C164.786 193.059 165.324 192.888 165.89 192.888C166.338 192.888 166.711 192.963 167.01 193.112C167.308 193.261 167.596 193.469 167.874 193.736L167.794 192.504V189.768H169.986V201H168.194L168.034 200.2H167.97C167.692 200.477 167.362 200.712 166.978 200.904C166.604 201.096 166.22 201.192 165.826 201.192ZM166.386 199.4C166.663 199.4 166.914 199.341 167.138 199.224C167.362 199.107 167.58 198.909 167.794 198.632V195.24C167.57 195.037 167.335 194.899 167.09 194.824C166.855 194.739 166.62 194.696 166.386 194.696C166.108 194.696 165.852 194.781 165.618 194.952C165.383 195.123 165.191 195.384 165.042 195.736C164.903 196.077 164.834 196.504 164.834 197.016C164.834 197.816 164.967 198.413 165.234 198.808C165.511 199.203 165.895 199.4 166.386 199.4ZM174.103 201.192C173.633 201.192 173.223 201.091 172.871 200.888C172.519 200.675 172.241 200.392 172.039 200.04C171.847 199.677 171.751 199.272 171.751 198.824C171.751 197.992 172.108 197.341 172.823 196.872C173.537 196.403 174.689 196.083 176.279 195.912C176.268 195.667 176.215 195.448 176.119 195.256C176.033 195.064 175.895 194.915 175.703 194.808C175.521 194.701 175.276 194.648 174.967 194.648C174.615 194.648 174.263 194.717 173.911 194.856C173.569 194.984 173.212 195.16 172.839 195.384L172.039 193.928C172.359 193.736 172.7 193.56 173.062 193.4C173.425 193.24 173.799 193.117 174.183 193.032C174.567 192.936 174.967 192.888 175.383 192.888C176.055 192.888 176.62 193.021 177.079 193.288C177.537 193.555 177.884 193.949 178.119 194.472C178.353 194.984 178.471 195.635 178.471 196.424V201H176.679L176.519 200.168H176.455C176.124 200.467 175.761 200.712 175.367 200.904C174.983 201.096 174.561 201.192 174.103 201.192ZM174.839 199.496C175.127 199.496 175.377 199.432 175.591 199.304C175.815 199.165 176.044 198.984 176.279 198.76V197.256C175.671 197.331 175.191 197.437 174.839 197.576C174.487 197.704 174.236 197.864 174.087 198.056C173.937 198.237 173.863 198.435 173.863 198.648C173.863 198.936 173.953 199.149 174.135 199.288C174.316 199.427 174.551 199.496 174.839 199.496ZM182.829 201.192C182.306 201.192 181.768 201.091 181.213 200.888C180.669 200.675 180.2 200.408 179.805 200.088L180.797 198.712C181.16 198.979 181.512 199.187 181.853 199.336C182.194 199.485 182.541 199.56 182.893 199.56C183.266 199.56 183.538 199.491 183.709 199.352C183.88 199.213 183.965 199.027 183.965 198.792C183.965 198.611 183.885 198.456 183.725 198.328C183.576 198.189 183.373 198.072 183.117 197.976C182.872 197.869 182.61 197.763 182.333 197.656C182.002 197.528 181.672 197.368 181.341 197.176C181.021 196.984 180.749 196.739 180.525 196.44C180.312 196.141 180.205 195.773 180.205 195.336C180.205 194.611 180.477 194.024 181.021 193.576C181.565 193.117 182.285 192.888 183.181 192.888C183.778 192.888 184.301 192.989 184.749 193.192C185.197 193.395 185.586 193.624 185.917 193.88L184.941 195.208C184.653 194.995 184.37 194.829 184.093 194.712C183.816 194.584 183.533 194.52 183.245 194.52C182.914 194.52 182.664 194.589 182.493 194.728C182.333 194.856 182.253 195.027 182.253 195.24C182.253 195.411 182.328 195.555 182.477 195.672C182.626 195.789 182.824 195.896 183.069 195.992C183.314 196.088 183.576 196.184 183.853 196.28C184.194 196.408 184.53 196.568 184.861 196.76C185.192 196.941 185.469 197.187 185.693 197.496C185.917 197.795 186.029 198.184 186.029 198.664C186.029 199.133 185.906 199.56 185.661 199.944C185.416 200.328 185.053 200.632 184.573 200.856C184.104 201.08 183.522 201.192 182.829 201.192ZM190.532 201.192C189.572 201.192 188.884 200.915 188.468 200.36C188.063 199.805 187.86 199.08 187.86 198.184V194.808H186.772V193.176L187.988 193.08L188.244 190.968H190.052V193.08H191.988V194.808H190.052V198.168C190.052 198.616 190.143 198.947 190.324 199.16C190.516 199.363 190.778 199.464 191.108 199.464C191.247 199.464 191.386 199.448 191.524 199.416C191.663 199.384 191.786 199.347 191.892 199.304L192.244 200.904C192.031 200.968 191.78 201.032 191.492 201.096C191.204 201.16 190.884 201.192 190.532 201.192ZM193.572 201V193.08H195.364L195.524 194.472H195.588C195.876 193.949 196.217 193.555 196.612 193.288C197.017 193.021 197.423 192.888 197.828 192.888C198.041 192.888 198.223 192.904 198.372 192.936C198.521 192.957 198.649 192.995 198.756 193.048L198.388 194.952C198.249 194.909 198.116 194.877 197.988 194.856C197.871 194.835 197.727 194.824 197.556 194.824C197.247 194.824 196.927 194.936 196.596 195.16C196.265 195.384 195.988 195.779 195.764 196.344V201H193.572ZM203.31 201.192C202.564 201.192 201.886 201.027 201.278 200.696C200.681 200.365 200.206 199.896 199.854 199.288C199.502 198.669 199.326 197.923 199.326 197.048C199.326 196.195 199.502 195.459 199.854 194.84C200.217 194.221 200.681 193.741 201.246 193.4C201.812 193.059 202.409 192.888 203.038 192.888C203.774 192.888 204.388 193.053 204.878 193.384C205.38 193.715 205.753 194.168 205.998 194.744C206.254 195.309 206.382 195.955 206.382 196.68C206.382 196.872 206.372 197.064 206.35 197.256C206.329 197.437 206.308 197.576 206.286 197.672H201.054L201.038 196.216H204.494C204.494 195.725 204.382 195.331 204.158 195.032C203.934 194.723 203.577 194.568 203.086 194.568C202.798 194.568 202.521 194.648 202.254 194.808C201.988 194.968 201.769 195.235 201.598 195.608C201.428 195.971 201.342 196.451 201.342 197.048C201.342 197.656 201.449 198.141 201.662 198.504C201.886 198.856 202.169 199.112 202.51 199.272C202.852 199.432 203.214 199.512 203.598 199.512C203.918 199.512 204.217 199.469 204.494 199.384C204.782 199.288 205.07 199.155 205.358 198.984L206.078 200.312C205.684 200.579 205.241 200.792 204.75 200.952C204.27 201.112 203.79 201.192 203.31 201.192ZM213.532 201.192C213.01 201.192 212.471 201.091 211.916 200.888C211.372 200.675 210.903 200.408 210.508 200.088L211.5 198.712C211.863 198.979 212.215 199.187 212.556 199.336C212.898 199.485 213.244 199.56 213.596 199.56C213.97 199.56 214.242 199.491 214.412 199.352C214.583 199.213 214.668 199.027 214.668 198.792C214.668 198.611 214.588 198.456 214.428 198.328C214.279 198.189 214.076 198.072 213.82 197.976C213.575 197.869 213.314 197.763 213.036 197.656C212.706 197.528 212.375 197.368 212.044 197.176C211.724 196.984 211.452 196.739 211.228 196.44C211.015 196.141 210.908 195.773 210.908 195.336C210.908 194.611 211.18 194.024 211.724 193.576C212.268 193.117 212.988 192.888 213.884 192.888C214.482 192.888 215.004 192.989 215.452 193.192C215.9 193.395 216.29 193.624 216.62 193.88L215.644 195.208C215.356 194.995 215.074 194.829 214.796 194.712C214.519 194.584 214.236 194.52 213.948 194.52C213.618 194.52 213.367 194.589 213.196 194.728C213.036 194.856 212.956 195.027 212.956 195.24C212.956 195.411 213.031 195.555 213.18 195.672C213.33 195.789 213.527 195.896 213.772 195.992C214.018 196.088 214.279 196.184 214.556 196.28C214.898 196.408 215.234 196.568 215.564 196.76C215.895 196.941 216.172 197.187 216.396 197.496C216.62 197.795 216.732 198.184 216.732 198.664C216.732 199.133 216.61 199.56 216.364 199.944C216.119 200.328 215.756 200.632 215.276 200.856C214.807 201.08 214.226 201.192 213.532 201.192ZM221.764 201.192C221.017 201.192 220.34 201.027 219.732 200.696C219.134 200.365 218.66 199.896 218.308 199.288C217.956 198.669 217.78 197.923 217.78 197.048C217.78 196.195 217.956 195.459 218.308 194.84C218.67 194.221 219.134 193.741 219.7 193.4C220.265 193.059 220.862 192.888 221.492 192.888C222.228 192.888 222.841 193.053 223.332 193.384C223.833 193.715 224.206 194.168 224.452 194.744C224.708 195.309 224.836 195.955 224.836 196.68C224.836 196.872 224.825 197.064 224.804 197.256C224.782 197.437 224.761 197.576 224.74 197.672H219.508L219.492 196.216H222.948C222.948 195.725 222.836 195.331 222.612 195.032C222.388 194.723 222.03 194.568 221.54 194.568C221.252 194.568 220.974 194.648 220.708 194.808C220.441 194.968 220.222 195.235 220.052 195.608C219.881 195.971 219.796 196.451 219.796 197.048C219.796 197.656 219.902 198.141 220.116 198.504C220.34 198.856 220.622 199.112 220.964 199.272C221.305 199.432 221.668 199.512 222.052 199.512C222.372 199.512 222.67 199.469 222.948 199.384C223.236 199.288 223.524 199.155 223.812 198.984L224.532 200.312C224.137 200.579 223.694 200.792 223.204 200.952C222.724 201.112 222.244 201.192 221.764 201.192ZM228.846 201.192C228.004 201.192 227.385 200.909 226.99 200.344C226.596 199.779 226.398 199 226.398 198.008V193.08H228.59V197.736C228.59 198.333 228.676 198.749 228.846 198.984C229.028 199.208 229.3 199.32 229.662 199.32C229.972 199.32 230.238 199.251 230.462 199.112C230.686 198.963 230.921 198.717 231.166 198.376V193.08H233.358V201H231.566L231.406 199.88H231.358C231.017 200.285 230.649 200.605 230.254 200.84C229.86 201.075 229.39 201.192 228.846 201.192ZM242.232 201.192C241.486 201.192 240.808 201.027 240.2 200.696C239.603 200.365 239.128 199.896 238.776 199.288C238.424 198.669 238.248 197.923 238.248 197.048C238.248 196.195 238.424 195.459 238.776 194.84C239.139 194.221 239.603 193.741 240.168 193.4C240.734 193.059 241.331 192.888 241.96 192.888C242.696 192.888 243.31 193.053 243.8 193.384C244.302 193.715 244.675 194.168 244.92 194.744C245.176 195.309 245.304 195.955 245.304 196.68C245.304 196.872 245.294 197.064 245.272 197.256C245.251 197.437 245.23 197.576 245.208 197.672H239.976L239.96 196.216H243.416C243.416 195.725 243.304 195.331 243.08 195.032C242.856 194.723 242.499 194.568 242.008 194.568C241.72 194.568 241.443 194.648 241.176 194.808C240.91 194.968 240.691 195.235 240.52 195.608C240.35 195.971 240.264 196.451 240.264 197.048C240.264 197.656 240.371 198.141 240.584 198.504C240.808 198.856 241.091 199.112 241.432 199.272C241.774 199.432 242.136 199.512 242.52 199.512C242.84 199.512 243.139 199.469 243.416 199.384C243.704 199.288 243.992 199.155 244.28 198.984L245 200.312C244.606 200.579 244.163 200.792 243.672 200.952C243.192 201.112 242.712 201.192 242.232 201.192ZM246.947 201V193.08H248.739L248.899 194.12H248.963C249.283 193.789 249.635 193.501 250.019 193.256C250.403 193.011 250.851 192.888 251.363 192.888C251.928 192.888 252.387 193.011 252.739 193.256C253.091 193.491 253.363 193.821 253.555 194.248C253.907 193.875 254.28 193.555 254.675 193.288C255.08 193.021 255.539 192.888 256.051 192.888C256.904 192.888 257.528 193.171 257.923 193.736C258.318 194.301 258.515 195.08 258.515 196.072V201H256.323V196.36C256.323 195.763 256.238 195.347 256.067 195.112C255.907 194.877 255.646 194.76 255.283 194.76C255.059 194.76 254.83 194.829 254.595 194.968C254.36 195.107 254.104 195.32 253.827 195.608V201H251.635V196.36C251.635 195.763 251.55 195.347 251.379 195.112C251.219 194.877 250.958 194.76 250.595 194.76C250.158 194.76 249.672 195.043 249.139 195.608V201H246.947ZM262.556 201.192C262.086 201.192 261.676 201.091 261.324 200.888C260.972 200.675 260.694 200.392 260.492 200.04C260.3 199.677 260.204 199.272 260.204 198.824C260.204 197.992 260.561 197.341 261.276 196.872C261.99 196.403 263.142 196.083 264.732 195.912C264.721 195.667 264.668 195.448 264.572 195.256C264.486 195.064 264.348 194.915 264.156 194.808C263.974 194.701 263.729 194.648 263.42 194.648C263.068 194.648 262.716 194.717 262.364 194.856C262.022 194.984 261.665 195.16 261.292 195.384L260.492 193.928C260.812 193.736 261.153 193.56 261.516 193.4C261.878 193.24 262.252 193.117 262.636 193.032C263.02 192.936 263.42 192.888 263.836 192.888C264.508 192.888 265.073 193.021 265.532 193.288C265.99 193.555 266.337 193.949 266.572 194.472C266.806 194.984 266.924 195.635 266.924 196.424V201H265.132L264.972 200.168H264.908C264.577 200.467 264.214 200.712 263.82 200.904C263.436 201.096 263.014 201.192 262.556 201.192ZM263.292 199.496C263.58 199.496 263.83 199.432 264.044 199.304C264.268 199.165 264.497 198.984 264.732 198.76V197.256C264.124 197.331 263.644 197.437 263.292 197.576C262.94 197.704 262.689 197.864 262.54 198.056C262.39 198.237 262.316 198.435 262.316 198.648C262.316 198.936 262.406 199.149 262.588 199.288C262.769 199.427 263.004 199.496 263.292 199.496ZM268.978 201V193.08H271.17V201H268.978ZM270.082 191.864C269.73 191.864 269.437 191.752 269.202 191.528C268.968 191.304 268.85 191.021 268.85 190.68C268.85 190.339 268.968 190.061 269.202 189.848C269.437 189.624 269.73 189.512 270.082 189.512C270.445 189.512 270.738 189.624 270.962 189.848C271.197 190.061 271.314 190.339 271.314 190.68C271.314 191.021 271.197 191.304 270.962 191.528C270.738 191.752 270.445 191.864 270.082 191.864ZM275.386 201.192C274.884 201.192 274.484 201.091 274.186 200.888C273.887 200.675 273.668 200.381 273.53 200.008C273.402 199.635 273.338 199.192 273.338 198.68V189.768H275.53V198.776C275.53 199.011 275.572 199.176 275.658 199.272C275.754 199.368 275.85 199.416 275.946 199.416C275.999 199.416 276.042 199.416 276.074 199.416C276.116 199.405 276.17 199.395 276.234 199.384L276.506 201C276.378 201.053 276.223 201.096 276.042 201.128C275.86 201.171 275.642 201.192 275.386 201.192Z" fill="white"/>
<rect x="56" y="235" width="290" height="39" rx="8" fill="#F3F3F3"/>
<path d="M77.472 260V249.488H78.688L82.656 256.304L83.808 258.464H83.872C83.84 257.931 83.8027 257.387 83.76 256.832C83.728 256.267 83.712 255.717 83.712 255.184V249.488H84.832V260H83.616L79.648 253.184L78.496 251.024H78.432C78.4747 251.547 78.512 252.08 78.544 252.624C78.576 253.157 78.592 253.696 78.592 254.24V260H77.472ZM90.6169 260.192C89.9875 260.192 89.4009 260.032 88.8569 259.712C88.3129 259.392 87.8755 258.933 87.5449 258.336C87.2142 257.728 87.0489 256.992 87.0489 256.128C87.0489 255.264 87.2142 254.528 87.5449 253.92C87.8755 253.312 88.3129 252.848 88.8569 252.528C89.4009 252.208 89.9875 252.048 90.6169 252.048C91.2462 252.048 91.8275 252.208 92.3609 252.528C92.9049 252.848 93.3422 253.312 93.6729 253.92C94.0142 254.528 94.1849 255.264 94.1849 256.128C94.1849 256.992 94.0142 257.728 93.6729 258.336C93.3422 258.933 92.9049 259.392 92.3609 259.712C91.8275 260.032 91.2462 260.192 90.6169 260.192ZM90.6169 259.216C91.0862 259.216 91.4969 259.088 91.8489 258.832C92.2115 258.576 92.4889 258.219 92.6809 257.76C92.8835 257.291 92.9849 256.747 92.9849 256.128C92.9849 255.52 92.8835 254.981 92.6809 254.512C92.4889 254.043 92.2115 253.68 91.8489 253.424C91.4969 253.157 91.0862 253.024 90.6169 253.024C90.1582 253.024 89.7475 253.157 89.3849 253.424C89.0329 253.68 88.7555 254.043 88.5529 254.512C88.3609 254.981 88.2649 255.52 88.2649 256.128C88.2649 256.747 88.3609 257.291 88.5529 257.76C88.7555 258.219 89.0329 258.576 89.3849 258.832C89.7475 259.088 90.1582 259.216 90.6169 259.216ZM96.2975 260V252.24H97.2575L97.3535 253.392H97.4015C97.7428 253.019 98.1162 252.704 98.5215 252.448C98.9375 252.181 99.3695 252.048 99.8175 252.048C100.426 252.048 100.895 252.187 101.226 252.464C101.567 252.731 101.812 253.093 101.962 253.552C102.378 253.104 102.794 252.741 103.21 252.464C103.636 252.187 104.079 252.048 104.538 252.048C105.338 252.048 105.93 252.304 106.314 252.816C106.698 253.328 106.89 254.08 106.89 255.072V260H105.722V255.216C105.722 254.469 105.599 253.925 105.354 253.584C105.108 253.243 104.724 253.072 104.202 253.072C103.892 253.072 103.567 253.179 103.226 253.392C102.895 253.595 102.543 253.904 102.17 254.32V260H101.002V255.216C101.002 254.469 100.879 253.925 100.634 253.584C100.399 253.243 100.02 253.072 99.4975 253.072C98.8788 253.072 98.1962 253.488 97.4495 254.32V260H96.2975ZM112.573 260.192C111.901 260.192 111.282 260.032 110.717 259.712C110.162 259.381 109.719 258.917 109.389 258.32C109.058 257.712 108.893 256.981 108.893 256.128C108.893 255.285 109.058 254.56 109.389 253.952C109.719 253.344 110.146 252.875 110.669 252.544C111.202 252.213 111.767 252.048 112.365 252.048C113.005 252.048 113.554 252.197 114.013 252.496C114.471 252.795 114.818 253.216 115.053 253.76C115.298 254.293 115.421 254.933 115.421 255.68C115.421 255.808 115.415 255.936 115.405 256.064C115.405 256.181 115.394 256.288 115.373 256.384H109.805L109.789 255.536H114.381C114.381 254.704 114.205 254.075 113.853 253.648C113.501 253.211 113.01 252.992 112.381 252.992C111.997 252.992 111.623 253.104 111.261 253.328C110.898 253.552 110.599 253.893 110.365 254.352C110.13 254.811 110.013 255.403 110.013 256.128C110.013 256.821 110.135 257.397 110.381 257.856C110.626 258.315 110.951 258.661 111.357 258.896C111.773 259.131 112.226 259.248 112.717 259.248C113.111 259.248 113.463 259.189 113.773 259.072C114.093 258.955 114.397 258.805 114.685 258.624L115.117 259.392C114.786 259.605 114.413 259.792 113.997 259.952C113.591 260.112 113.117 260.192 112.573 260.192Z" fill="#A0A0A0"/>
<rect x="56" y="284" width="290" height="39" rx="8" fill="#F3F3F3"/>
<path d="M77.472 309V298.488H83.44V299.496H78.656V302.968H82.688V303.96H78.656V307.992H83.6V309H77.472ZM85.7506 309V301.24H86.7106L86.8066 302.392H86.8546C87.196 302.019 87.5693 301.704 87.9746 301.448C88.3906 301.181 88.8226 301.048 89.2706 301.048C89.8786 301.048 90.348 301.187 90.6786 301.464C91.02 301.731 91.2653 302.093 91.4146 302.552C91.8306 302.104 92.2466 301.741 92.6626 301.464C93.0893 301.187 93.532 301.048 93.9906 301.048C94.7906 301.048 95.3826 301.304 95.7666 301.816C96.1506 302.328 96.3426 303.08 96.3426 304.072V309H95.1746V304.216C95.1746 303.469 95.052 302.925 94.8066 302.584C94.5613 302.243 94.1773 302.072 93.6546 302.072C93.3453 302.072 93.02 302.179 92.6786 302.392C92.348 302.595 91.996 302.904 91.6226 303.32V309H90.4546V304.216C90.4546 303.469 90.332 302.925 90.0866 302.584C89.852 302.243 89.4733 302.072 88.9506 302.072C88.332 302.072 87.6493 302.488 86.9026 303.32V309H85.7506ZM100.714 309.192C100.287 309.192 99.9031 309.107 99.5618 308.936C99.2204 308.765 98.9484 308.52 98.7458 308.2C98.5431 307.869 98.4418 307.469 98.4418 307C98.4418 306.157 98.8258 305.512 99.5938 305.064C100.372 304.605 101.599 304.285 103.274 304.104C103.274 303.752 103.226 303.416 103.13 303.096C103.044 302.776 102.879 302.52 102.634 302.328C102.399 302.125 102.058 302.024 101.61 302.024C101.14 302.024 100.703 302.115 100.298 302.296C99.9031 302.477 99.5564 302.669 99.2578 302.872L98.7938 302.072C99.0178 301.923 99.2844 301.768 99.5938 301.608C99.9031 301.448 100.244 301.315 100.618 301.208C100.991 301.101 101.386 301.048 101.802 301.048C102.431 301.048 102.938 301.181 103.322 301.448C103.706 301.715 103.983 302.083 104.154 302.552C104.335 303.021 104.426 303.571 104.426 304.2V309H103.466L103.37 308.056H103.322C102.948 308.365 102.543 308.632 102.106 308.856C101.668 309.08 101.204 309.192 100.714 309.192ZM101.018 308.248C101.423 308.248 101.796 308.157 102.138 307.976C102.49 307.784 102.868 307.512 103.274 307.16V304.888C102.356 304.995 101.631 305.144 101.098 305.336C100.564 305.517 100.18 305.741 99.9457 306.008C99.7111 306.275 99.5938 306.584 99.5938 306.936C99.5938 307.395 99.7324 307.731 100.01 307.944C100.298 308.147 100.634 308.248 101.018 308.248ZM106.969 309V301.24H108.121V309H106.969ZM107.561 299.576C107.337 299.576 107.145 299.501 106.985 299.352C106.836 299.203 106.761 299.005 106.761 298.76C106.761 298.525 106.836 298.339 106.985 298.2C107.145 298.051 107.337 297.976 107.561 297.976C107.796 297.976 107.988 298.051 108.137 298.2C108.287 298.339 108.361 298.525 108.361 298.76C108.361 299.005 108.287 299.203 108.137 299.352C107.988 299.501 107.796 299.576 107.561 299.576ZM112.108 309.192C111.82 309.192 111.58 309.128 111.388 309C111.196 308.883 111.058 308.707 110.972 308.472C110.887 308.227 110.844 307.928 110.844 307.576V297.576H111.996V307.672C111.996 307.864 112.034 308.003 112.108 308.088C112.183 308.173 112.268 308.216 112.364 308.216C112.396 308.216 112.434 308.216 112.476 308.216C112.519 308.205 112.578 308.195 112.652 308.184L112.812 309.08C112.727 309.101 112.626 309.123 112.508 309.144C112.402 309.176 112.268 309.192 112.108 309.192Z" fill="#A0A0A0"/>
<rect x="56" y="333" width="290" height="39" rx="8" fill="#F3F3F3"/>
<path d="M80.336 359.192C79.6 359.192 78.9227 359.048 78.304 358.76C77.6853 358.472 77.1467 358.093 76.688 357.624L77.408 356.808C77.792 357.213 78.2347 357.539 78.736 357.784C79.248 358.029 79.7867 358.152 80.352 358.152C81.0773 358.152 81.6427 357.987 82.048 357.656C82.4533 357.315 82.656 356.872 82.656 356.328C82.656 355.955 82.576 355.656 82.416 355.432C82.256 355.197 82.0427 355.005 81.776 354.856C81.5093 354.696 81.2053 354.541 80.864 354.392L79.344 353.72C79.024 353.581 78.6987 353.4 78.368 353.176C78.0373 352.952 77.76 352.669 77.536 352.328C77.3227 351.987 77.216 351.555 77.216 351.032C77.216 350.509 77.3547 350.045 77.632 349.64C77.9093 349.224 78.2933 348.899 78.784 348.664C79.2747 348.419 79.8293 348.296 80.448 348.296C81.0773 348.296 81.6533 348.419 82.176 348.664C82.7093 348.909 83.152 349.219 83.504 349.592L82.864 350.36C82.5547 350.04 82.1973 349.789 81.792 349.608C81.3973 349.427 80.9493 349.336 80.448 349.336C79.84 349.336 79.344 349.485 78.96 349.784C78.5867 350.072 78.4 350.467 78.4 350.968C78.4 351.32 78.4907 351.608 78.672 351.832C78.8533 352.056 79.0773 352.243 79.344 352.392C79.6213 352.531 79.8933 352.659 80.16 352.776L81.68 353.448C82.096 353.619 82.464 353.821 82.784 354.056C83.104 354.291 83.36 354.584 83.552 354.936C83.7547 355.288 83.856 355.725 83.856 356.248C83.856 356.792 83.712 357.288 83.424 357.736C83.1467 358.184 82.7413 358.541 82.208 358.808C81.6853 359.064 81.0613 359.192 80.336 359.192ZM88.9164 359.192C88.2444 359.192 87.6257 359.032 87.0604 358.712C86.5057 358.381 86.063 357.917 85.7324 357.32C85.4017 356.712 85.2364 355.981 85.2364 355.128C85.2364 354.285 85.4017 353.56 85.7324 352.952C86.063 352.344 86.4897 351.875 87.0124 351.544C87.5457 351.213 88.111 351.048 88.7084 351.048C89.3484 351.048 89.8977 351.197 90.3564 351.496C90.815 351.795 91.1617 352.216 91.3964 352.76C91.6417 353.293 91.7644 353.933 91.7644 354.68C91.7644 354.808 91.759 354.936 91.7484 355.064C91.7484 355.181 91.7377 355.288 91.7164 355.384H86.1484L86.1324 354.536H90.7244C90.7244 353.704 90.5484 353.075 90.1964 352.648C89.8444 352.211 89.3537 351.992 88.7244 351.992C88.3404 351.992 87.967 352.104 87.6044 352.328C87.2417 352.552 86.943 352.893 86.7084 353.352C86.4737 353.811 86.3564 354.403 86.3564 355.128C86.3564 355.821 86.479 356.397 86.7244 356.856C86.9697 357.315 87.295 357.661 87.7004 357.896C88.1164 358.131 88.5697 358.248 89.0604 358.248C89.455 358.248 89.807 358.189 90.1164 358.072C90.4364 357.955 90.7404 357.805 91.0284 357.624L91.4604 358.392C91.1297 358.605 90.7564 358.792 90.3404 358.952C89.935 359.112 89.4604 359.192 88.9164 359.192ZM93.7194 359V351.24H94.6794L94.7754 352.392H94.8234C95.1967 352.008 95.5914 351.688 96.0074 351.432C96.434 351.176 96.9087 351.048 97.4314 351.048C98.2527 351.048 98.85 351.304 99.2234 351.816C99.6074 352.328 99.7994 353.08 99.7994 354.072V359H98.6314V354.216C98.6314 353.469 98.5087 352.925 98.2634 352.584C98.0287 352.243 97.6394 352.072 97.0954 352.072C96.69 352.072 96.322 352.179 95.9914 352.392C95.6607 352.595 95.2874 352.904 94.8714 353.32V359H93.7194ZM102.407 359V347.576H103.559V350.744L103.527 352.376C103.9 352.003 104.295 351.688 104.711 351.432C105.127 351.176 105.596 351.048 106.119 351.048C106.94 351.048 107.538 351.304 107.911 351.816C108.295 352.328 108.487 353.08 108.487 354.072V359H107.319V354.216C107.319 353.469 107.196 352.925 106.951 352.584C106.716 352.243 106.327 352.072 105.783 352.072C105.378 352.072 105.01 352.179 104.679 352.392C104.348 352.595 103.975 352.904 103.559 353.32V359H102.407ZM112.808 359.192C112.381 359.192 111.997 359.107 111.656 358.936C111.314 358.765 111.042 358.52 110.84 358.2C110.637 357.869 110.536 357.469 110.536 357C110.536 356.157 110.92 355.512 111.688 355.064C112.466 354.605 113.693 354.285 115.368 354.104C115.368 353.752 115.32 353.416 115.224 353.096C115.138 352.776 114.973 352.52 114.728 352.328C114.493 352.125 114.152 352.024 113.704 352.024C113.234 352.024 112.797 352.115 112.392 352.296C111.997 352.477 111.65 352.669 111.352 352.872L110.888 352.072C111.112 351.923 111.378 351.768 111.688 351.608C111.997 351.448 112.338 351.315 112.712 351.208C113.085 351.101 113.48 351.048 113.896 351.048C114.525 351.048 115.032 351.181 115.416 351.448C115.8 351.715 116.077 352.083 116.248 352.552C116.429 353.021 116.52 353.571 116.52 354.2V359H115.56L115.464 358.056H115.416C115.042 358.365 114.637 358.632 114.2 358.856C113.762 359.08 113.298 359.192 112.808 359.192ZM113.112 358.248C113.517 358.248 113.89 358.157 114.232 357.976C114.584 357.784 114.962 357.512 115.368 357.16V354.888C114.45 354.995 113.725 355.144 113.192 355.336C112.658 355.517 112.274 355.741 112.039 356.008C111.805 356.275 111.688 356.584 111.688 356.936C111.688 357.395 111.826 357.731 112.104 357.944C112.392 358.147 112.728 358.248 113.112 358.248Z" fill="#A0A0A0"/>
<defs>
<filter id="filter0_d_6_103" x="0" y="0" width="398" height="493" filterUnits="userSpaceOnUse" color-interpolation-filters="sRGB">
<feFlood flood-opacity="0" result="BackgroundImageFix"/>
<feColorMatrix in="SourceAlpha" type="matrix" values="0 0 0 0 0 0 0 0 0 0 0 0 0 0 0 0 0 0 127 0" result="hardAlpha"/>
<feOffset dy="4"/>
<feGaussianBlur stdDeviation="2"/>
<feComposite in2="hardAlpha" operator="out"/>
<feColorMatrix type="matrix" values="0 0 0 0 0 0 0 0 0 0 0 0 0 0 0 0 0 0 0.25 0"/>
<feBlend mode="normal" in2="BackgroundImageFix" result="effect1_dropShadow_6_103"/>
<feBlend mode="normal" in="SourceGraphic" in2="effect1_dropShadow_6_103" result="shape"/>
</filter>
<filter id="filter1_b_6_103" x="0" y="-4" width="398" height="493" filterUnits="userSpaceOnUse" color-interpolation-filters="sRGB">
<feFlood flood-opacity="0" result="BackgroundImageFix"/>
<feGaussianBlur in="BackgroundImage" stdDeviation="2"/>
<feComposite in2="SourceAlpha" operator="in" result="effect1_backgroundBlur_6_103"/>
<feBlend mode="normal" in="SourceGraphic" in2="effect1_backgroundBlur_6_103" result="shape"/>
</filter>
<filter id="filter2_d_6_103" x="239" y="132" width="48" height="48" filterUnits="userSpaceOnUse" color-interpolation-filters="sRGB">
<feFlood flood-opacity="0" result="BackgroundImageFix"/>
<feColorMatrix in="SourceAlpha" type="matrix" values="0 0 0 0 0 0 0 0 0 0 0 0 0 0 0 0 0 0 127 0" result="hardAlpha"/>
<feOffset dy="4"/>
<feGaussianBlur stdDeviation="2"/>
<feColorMatrix type="matrix" values="0 0 0 0 0 0 0 0 0 0 0 0 0 0 0 0 0 0 0.25 0"/>
<feBlend mode="normal" in2="BackgroundImageFix" result="effect1_dropShadow_6_103"/>
<feBlend mode="normal" in="SourceGraphic" in2="effect1_dropShadow_6_103" result="shape"/>
</filter>
<filter id="filter3_d_6_103" x="175" y="130" width="48" height="48" filterUnits="userSpaceOnUse" color-interpolation-filters="sRGB">
<feFlood flood-opacity="0" result="BackgroundImageFix"/>
<feColorMatrix in="SourceAlpha" type="matrix" values="0 0 0 0 0 0 0 0 0 0 0 0 0 0 0 0 0 0 127 0" result="hardAlpha"/>
<feOffset dy="4"/>
<feGaussianBlur stdDeviation="2"/>
<feColorMatrix type="matrix" values="0 0 0 0 0 0 0 0 0 0 0 0 0 0 0 0 0 0 0.25 0"/>
<feBlend mode="normal" in2="BackgroundImageFix" result="effect1_dropShadow_6_103"/>
<feBlend mode="normal" in="SourceGraphic" in2="effect1_dropShadow_6_103" result="shape"/>
</filter>
<filter id="filter4_d_6_103" x="111" y="132" width="48" height="48" filterUnits="userSpaceOnUse" color-interpolation-filters="sRGB">
<feFlood flood-opacity="0" result="BackgroundImageFix"/>
<feColorMatrix in="SourceAlpha" type="matrix" values="0 0 0 0 0 0 0 0 0 0 0 0 0 0 0 0 0 0 127 0" result="hardAlpha"/>
<feOffset dy="4"/>
<feGaussianBlur stdDeviation="2"/>
<feColorMatrix type="matrix" values="0 0 0 0 0 0 0 0 0 0 0 0 0 0 0 0 0 0 0.25 0"/>
<feBlend mode="normal" in2="BackgroundImageFix" result="effect1_dropShadow_6_103"/>
<feBlend mode="normal" in="SourceGraphic" in2="effect1_dropShadow_6_103" result="shape"/>
</filter>
<clipPath id="clip0_6_103">
<rect width="17.5758" height="20" fill="white" transform="translate(254 142)"/>
</clipPath>
<clipPath id="clip1_6_103">
<rect width="12" height="19" fill="white" transform="translate(129 143)"/>
</clipPath>
</defs>
</svg>
