<svg width="74" height="13" viewBox="0 0 74 13" fill="none" xmlns="http://www.w3.org/2000/svg">
<path d="M0.134 13V0.399999H9.818V2.668H2.744V5.548H7.406V7.744H2.744V10.732H9.89V13H0.134ZM11.7356 13V0.399999H14.2196L20.4836 8.536V0.399999H22.9316V13H20.6276L14.2016 4.576V13H11.7356ZM28.656 13V2.704H24.408V0.399999H35.496V2.704H31.266V13H28.656ZM36.9602 13V0.399999H43.1162C43.9682 0.399999 44.7182 0.567999 45.3662 0.903999C46.0262 1.228 46.5362 1.684 46.8962 2.272C47.2682 2.86 47.4542 3.538 47.4542 4.306C47.4542 5.11 47.2322 5.818 46.7882 6.43C46.3442 7.042 45.7502 7.498 45.0062 7.798L47.7962 13H44.8802L42.4142 8.176H39.5702V13H36.9602ZM39.5702 6.034H42.8822C43.4702 6.034 43.9382 5.878 44.2862 5.566C44.6462 5.254 44.8262 4.846 44.8262 4.342C44.8262 3.838 44.6462 3.43 44.2862 3.118C43.9382 2.806 43.4702 2.65 42.8822 2.65H39.5702V6.034ZM48.1467 13L53.3308 0.399999H56.3368L61.4668 13H58.6408L57.3628 9.688H52.1608L50.8647 13H48.1467ZM52.9707 7.6H56.5708L54.7708 2.956L52.9707 7.6ZM62.5363 13V0.399999H68.6923C69.5443 0.399999 70.2943 0.567999 70.9423 0.903999C71.6023 1.228 72.1123 1.684 72.4723 2.272C72.8443 2.86 73.0303 3.538 73.0303 4.306C73.0303 5.11 72.8083 5.818 72.3643 6.43C71.9203 7.042 71.3263 7.498 70.5823 7.798L73.3723 13H70.4563L67.9903 8.176H65.1463V13H62.5363ZM65.1463 6.034H68.4583C69.0463 6.034 69.5143 5.878 69.8623 5.566C70.2223 5.254 70.4023 4.846 70.4023 4.342C70.4023 3.838 70.2223 3.43 69.8623 3.118C69.5143 2.806 69.0463 2.65 68.4583 2.65H65.1463V6.034Z" fill="white"/>
<path d="M0.134 13H-0.866V14H0.134V13ZM0.134 0.399999V-0.600001H-0.866V0.399999H0.134ZM9.818 0.399999H10.818V-0.600001H9.818V0.399999ZM9.818 2.668V3.668H10.818V2.668H9.818ZM2.744 2.668V1.668H1.744V2.668H2.744ZM2.744 5.548H1.744V6.548H2.744V5.548ZM7.406 5.548H8.406V4.548H7.406V5.548ZM7.406 7.744V8.744H8.406V7.744H7.406ZM2.744 7.744V6.744H1.744V7.744H2.744ZM2.744 10.732H1.744V11.732H2.744V10.732ZM9.89 10.732H10.89V9.732H9.89V10.732ZM9.89 13V14H10.89V13H9.89ZM1.134 13V0.399999H-0.866V13H1.134ZM0.134 1.4H9.818V-0.600001H0.134V1.4ZM8.818 0.399999V2.668H10.818V0.399999H8.818ZM9.818 1.668H2.744V3.668H9.818V1.668ZM1.744 2.668V5.548H3.744V2.668H1.744ZM2.744 6.548H7.406V4.548H2.744V6.548ZM6.406 5.548V7.744H8.406V5.548H6.406ZM7.406 6.744H2.744V8.744H7.406V6.744ZM1.744 7.744V10.732H3.744V7.744H1.744ZM2.744 11.732H9.89V9.732H2.744V11.732ZM8.89 10.732V13H10.89V10.732H8.89ZM9.89 12H0.134V14H9.89V12ZM11.7356 13H10.7356V14H11.7356V13ZM11.7356 0.399999V-0.600001H10.7356V0.399999H11.7356ZM14.2196 0.399999L15.0119 -0.210051L14.7117 -0.600001H14.2196V0.399999ZM20.4836 8.536L19.6912 9.14605L21.4836 11.4741V8.536H20.4836ZM20.4836 0.399999V-0.600001H19.4836V0.399999H20.4836ZM22.9316 0.399999H23.9316V-0.600001H22.9316V0.399999ZM22.9316 13V14H23.9316V13H22.9316ZM20.6276 13L19.8325 13.6065L20.1327 14H20.6276V13ZM14.2016 4.576L14.9966 3.9695L13.2016 1.61628V4.576H14.2016ZM14.2016 13V14H15.2016V13H14.2016ZM12.7356 13V0.399999H10.7356V13H12.7356ZM11.7356 1.4H14.2196V-0.600001H11.7356V1.4ZM13.4272 1.01005L19.6912 9.14605L21.2759 7.92595L15.0119 -0.210051L13.4272 1.01005ZM21.4836 8.536V0.399999H19.4836V8.536H21.4836ZM20.4836 1.4H22.9316V-0.600001H20.4836V1.4ZM21.9316 0.399999V13H23.9316V0.399999H21.9316ZM22.9316 12H20.6276V14H22.9316V12ZM21.4226 12.3935L14.9966 3.9695L13.4065 5.1825L19.8325 13.6065L21.4226 12.3935ZM13.2016 4.576V13H15.2016V4.576H13.2016ZM14.2016 12H11.7356V14H14.2016V12ZM28.656 13H27.656V14H28.656V13ZM28.656 2.704H29.656V1.704H28.656V2.704ZM24.408 2.704H23.408V3.704H24.408V2.704ZM24.408 0.399999V-0.600001H23.408V0.399999H24.408ZM35.496 0.399999H36.496V-0.600001H35.496V0.399999ZM35.496 2.704V3.704H36.496V2.704H35.496ZM31.266 2.704V1.704H30.266V2.704H31.266ZM31.266 13V14H32.266V13H31.266ZM29.656 13V2.704H27.656V13H29.656ZM28.656 1.704H24.408V3.704H28.656V1.704ZM25.408 2.704V0.399999H23.408V2.704H25.408ZM24.408 1.4H35.496V-0.600001H24.408V1.4ZM34.496 0.399999V2.704H36.496V0.399999H34.496ZM35.496 1.704H31.266V3.704H35.496V1.704ZM30.266 2.704V13H32.266V2.704H30.266ZM31.266 12H28.656V14H31.266V12ZM36.9602 13H35.9602V14H36.9602V13ZM36.9602 0.399999V-0.600001H35.9602V0.399999H36.9602ZM45.3662 0.903999L44.9059 1.79175L44.9156 1.79682L44.9255 1.80167L45.3662 0.903999ZM46.8962 2.272L46.0433 2.79415L46.0472 2.80043L46.0511 2.80664L46.8962 2.272ZM45.0062 7.798L44.6322 6.87056L43.5977 7.28769L44.1249 8.27064L45.0062 7.798ZM47.7962 13V14H49.4673L48.6774 12.5274L47.7962 13ZM44.8802 13L43.9898 13.4552L44.2683 14H44.8802V13ZM42.4142 8.176L43.3046 7.72083L43.0261 7.176H42.4142V8.176ZM39.5702 8.176V7.176H38.5702V8.176H39.5702ZM39.5702 13V14H40.5702V13H39.5702ZM39.5702 6.034H38.5702V7.034H39.5702V6.034ZM44.2862 5.566L43.6312 4.81031L43.6249 4.81582L43.6186 4.82143L44.2862 5.566ZM44.2862 3.118L43.6186 3.86257L43.6249 3.86818L43.6312 3.87369L44.2862 3.118ZM39.5702 2.65V1.65H38.5702V2.65H39.5702ZM37.9602 13V0.399999H35.9602V13H37.9602ZM36.9602 1.4H43.1162V-0.600001H36.9602V1.4ZM43.1162 1.4C43.8348 1.4 44.4221 1.54093 44.9059 1.79175L45.8265 0.0162444C45.0142 -0.404932 44.1016 -0.600001 43.1162 -0.600001V1.4ZM44.9255 1.80167C45.4271 2.04791 45.789 2.37874 46.0433 2.79415L47.749 1.74985C47.2834 0.989258 46.6252 0.408093 45.8068 0.00633144L44.9255 1.80167ZM46.0511 2.80664C46.3116 3.21833 46.4542 3.70695 46.4542 4.306H48.4542C48.4542 3.36904 48.2248 2.50167 47.7412 1.73736L46.0511 2.80664ZM46.4542 4.306C46.4542 4.91324 46.2908 5.41265 45.9788 5.84277L47.5976 7.01723C48.1735 6.22335 48.4542 5.30676 48.4542 4.306H46.4542ZM45.9788 5.84277C45.6519 6.29331 45.2131 6.63633 44.6322 6.87056L45.3801 8.72544C46.2873 8.35967 47.0365 7.79069 47.5976 7.01723L45.9788 5.84277ZM44.1249 8.27064L46.9149 13.4726L48.6774 12.5274L45.8874 7.32536L44.1249 8.27064ZM47.7962 12H44.8802V14H47.7962V12ZM45.7706 12.5448L43.3046 7.72083L41.5238 8.63117L43.9898 13.4552L45.7706 12.5448ZM42.4142 7.176H39.5702V9.176H42.4142V7.176ZM38.5702 8.176V13H40.5702V8.176H38.5702ZM39.5702 12H36.9602V14H39.5702V12ZM39.5702 7.034H42.8822V5.034H39.5702V7.034ZM42.8822 7.034C43.6506 7.034 44.3785 6.8263 44.9537 6.31057L43.6186 4.82143C43.4979 4.9297 43.2897 5.034 42.8822 5.034V7.034ZM44.9411 6.32169C45.5343 5.80758 45.8262 5.1169 45.8262 4.342H43.8262C43.8262 4.5751 43.758 4.70042 43.6312 4.81031L44.9411 6.32169ZM45.8262 4.342C45.8262 3.5671 45.5343 2.87642 44.9411 2.36231L43.6312 3.87369C43.758 3.98358 43.8262 4.1089 43.8262 4.342H45.8262ZM44.9537 2.37343C44.3785 1.8577 43.6506 1.65 42.8822 1.65V3.65C43.2897 3.65 43.4979 3.7543 43.6186 3.86257L44.9537 2.37343ZM42.8822 1.65H39.5702V3.65H42.8822V1.65ZM38.5702 2.65V6.034H40.5702V2.65H38.5702ZM48.1468 13L47.222 12.6195L46.654 14H48.1468V13ZM53.3307 0.399999V-0.600001H52.6609L52.406 0.019515L53.3307 0.399999ZM56.3368 0.399999L57.2629 0.0229125L57.0093 -0.600001H56.3368V0.399999ZM61.4668 13V14H62.9536L62.3929 12.6229L61.4668 13ZM58.6408 13L57.7078 13.36L57.9548 14H58.6408V13ZM57.3628 9.688L58.2957 9.328L58.0487 8.688H57.3628V9.688ZM52.1608 9.688V8.688H51.4782L51.2295 9.3236L52.1608 9.688ZM50.8647 13V14H51.5473L51.796 13.3644L50.8647 13ZM52.9707 7.6L52.0383 7.2386L51.5107 8.6H52.9707V7.6ZM56.5708 7.6V8.6H58.0308L57.5032 7.2386L56.5708 7.6ZM54.7708 2.956L55.7032 2.5946L54.7708 0.18898L53.8383 2.5946L54.7708 2.956ZM49.0715 13.3805L54.2555 0.780483L52.406 0.019515L47.222 12.6195L49.0715 13.3805ZM53.3307 1.4H56.3368V-0.600001H53.3307V1.4ZM55.4106 0.777086L60.5406 13.3771L62.3929 12.6229L57.2629 0.0229125L55.4106 0.777086ZM61.4668 12H58.6408V14H61.4668V12ZM59.5737 12.64L58.2957 9.328L56.4298 10.048L57.7078 13.36L59.5737 12.64ZM57.3628 8.688H52.1608V10.688H57.3628V8.688ZM51.2295 9.3236L49.9335 12.6356L51.796 13.3644L53.092 10.0524L51.2295 9.3236ZM50.8647 12H48.1468V14H50.8647V12ZM52.9707 8.6H56.5708V6.6H52.9707V8.6ZM57.5032 7.2386L55.7032 2.5946L53.8383 3.3174L55.6383 7.9614L57.5032 7.2386ZM53.8383 2.5946L52.0383 7.2386L53.9032 7.9614L55.7032 3.3174L53.8383 2.5946ZM62.5363 13H61.5363V14H62.5363V13ZM62.5363 0.399999V-0.600001H61.5363V0.399999H62.5363ZM70.9423 0.903999L70.482 1.79175L70.4918 1.79682L70.5017 1.80167L70.9423 0.903999ZM72.4723 2.272L71.6195 2.79415L71.6233 2.80043L71.6273 2.80664L72.4723 2.272ZM70.5823 7.798L70.2084 6.87056L69.1739 7.28769L69.7011 8.27064L70.5823 7.798ZM73.3723 13V14H75.0434L74.2536 12.5274L73.3723 13ZM70.4563 13L69.5659 13.4552L69.8445 14H70.4563V13ZM67.9903 8.176L68.8808 7.72083L68.6022 7.176H67.9903V8.176ZM65.1463 8.176V7.176H64.1463V8.176H65.1463ZM65.1463 13V14H66.1463V13H65.1463ZM65.1463 6.034H64.1463V7.034H65.1463V6.034ZM69.8623 5.566L69.2074 4.81031L69.2011 4.81582L69.1948 4.82143L69.8623 5.566ZM69.8623 3.118L69.1948 3.86257L69.2011 3.86818L69.2074 3.87369L69.8623 3.118ZM65.1463 2.65V1.65H64.1463V2.65H65.1463ZM63.5363 13V0.399999H61.5363V13H63.5363ZM62.5363 1.4H68.6923V-0.600001H62.5363V1.4ZM68.6923 1.4C69.4109 1.4 69.9983 1.54093 70.482 1.79175L71.4027 0.0162444C70.5904 -0.404932 69.6777 -0.600001 68.6923 -0.600001V1.4ZM70.5017 1.80167C71.0033 2.04791 71.3652 2.37874 71.6195 2.79415L73.3252 1.74985C72.8595 0.989258 72.2014 0.408093 71.383 0.00633144L70.5017 1.80167ZM71.6273 2.80664C71.8877 3.21833 72.0303 3.70695 72.0303 4.306H74.0303C74.0303 3.36904 73.801 2.50167 73.3174 1.73736L71.6273 2.80664ZM72.0303 4.306C72.0303 4.91324 71.867 5.41265 71.5549 5.84277L73.1738 7.01723C73.7497 6.22335 74.0303 5.30676 74.0303 4.306H72.0303ZM71.5549 5.84277C71.2281 6.29331 70.7893 6.63633 70.2084 6.87056L70.9563 8.72544C71.8634 8.35967 72.6126 7.79069 73.1738 7.01723L71.5549 5.84277ZM69.7011 8.27064L72.4911 13.4726L74.2536 12.5274L71.4636 7.32536L69.7011 8.27064ZM73.3723 12H70.4563V14H73.3723V12ZM71.3467 12.5448L68.8808 7.72083L67.0999 8.63117L69.5659 13.4552L71.3467 12.5448ZM67.9903 7.176H65.1463V9.176H67.9903V7.176ZM64.1463 8.176V13H66.1463V8.176H64.1463ZM65.1463 12H62.5363V14H65.1463V12ZM65.1463 7.034H68.4583V5.034H65.1463V7.034ZM68.4583 7.034C69.2268 7.034 69.9547 6.8263 70.5299 6.31057L69.1948 4.82143C69.074 4.9297 68.8659 5.034 68.4583 5.034V7.034ZM70.5173 6.32169C71.1105 5.80758 71.4023 5.1169 71.4023 4.342H69.4023C69.4023 4.5751 69.3342 4.70042 69.2074 4.81031L70.5173 6.32169ZM71.4023 4.342C71.4023 3.5671 71.1105 2.87642 70.5173 2.36231L69.2074 3.87369C69.3342 3.98358 69.4023 4.1089 69.4023 4.342H71.4023ZM70.5299 2.37343C69.9547 1.8577 69.2268 1.65 68.4583 1.65V3.65C68.8659 3.65 69.074 3.7543 69.1948 3.86257L70.5299 2.37343ZM68.4583 1.65H65.1463V3.65H68.4583V1.65ZM64.1463 2.65V6.034H66.1463V2.65H64.1463Z" fill="black"/>
</svg>
