<svg width="258" height="37" viewBox="0 0 258 37" fill="none" xmlns="http://www.w3.org/2000/svg">
<path d="M0.771813 12V1.568H4.25981C5.02781 1.568 5.72115 1.66933 6.33981 1.872C6.95848 2.07467 7.44915 2.42133 7.81181 2.912C8.18515 3.392 8.37181 4.048 8.37181 4.88C8.37181 5.68 8.19048 6.336 7.82781 6.848C7.46515 7.36 6.97448 7.744 6.35581 8C5.74781 8.24533 5.07048 8.368 4.32381 8.368H2.96381V12H0.771813ZM2.96381 6.608H4.17981C4.87315 6.608 5.38515 6.464 5.71581 6.176C6.04648 5.87733 6.21181 5.44533 6.21181 4.88C6.21181 4.29333 6.03048 3.888 5.66781 3.664C5.31581 3.42933 4.79848 3.312 4.11581 3.312H2.96381V6.608ZM12.0166 12.192C11.5472 12.192 11.1366 12.0907 10.7846 11.888C10.4326 11.6747 10.1552 11.392 9.95256 11.04C9.76056 10.6773 9.66456 10.272 9.66456 9.824C9.66456 8.992 10.0219 8.34133 10.7366 7.872C11.4512 7.40267 12.6032 7.08267 14.1926 6.912C14.1819 6.66667 14.1286 6.448 14.0326 6.256C13.9472 6.064 13.8086 5.91467 13.6166 5.808C13.4352 5.70133 13.1899 5.648 12.8806 5.648C12.5286 5.648 12.1766 5.71733 11.8246 5.856C11.4832 5.984 11.1259 6.16 10.7526 6.384L9.95256 4.928C10.2726 4.736 10.6139 4.56 10.9766 4.4C11.3392 4.24 11.7126 4.11733 12.0966 4.032C12.4806 3.936 12.8806 3.888 13.2966 3.888C13.9686 3.888 14.5339 4.02133 14.9926 4.288C15.4512 4.55467 15.7979 4.94933 16.0326 5.472C16.2672 5.984 16.3846 6.63467 16.3846 7.424V12H14.5926L14.4326 11.168H14.3686C14.0379 11.4667 13.6752 11.712 13.2806 11.904C12.8966 12.096 12.4752 12.192 12.0166 12.192ZM12.7526 10.496C13.0406 10.496 13.2912 10.432 13.5046 10.304C13.7286 10.1653 13.9579 9.984 14.1926 9.76V8.256C13.5846 8.33067 13.1046 8.43733 12.7526 8.576C12.4006 8.704 12.1499 8.864 12.0006 9.056C11.8512 9.23733 11.7766 9.43467 11.7766 9.648C11.7766 9.936 11.8672 10.1493 12.0486 10.288C12.2299 10.4267 12.4646 10.496 12.7526 10.496ZM18.4392 12V4.08H20.2312L20.3912 5.472H20.4552C20.7432 4.94933 21.0845 4.55467 21.4792 4.288C21.8845 4.02133 22.2899 3.888 22.6952 3.888C22.9085 3.888 23.0899 3.904 23.2392 3.936C23.3885 3.95733 23.5165 3.99467 23.6232 4.048L23.2552 5.952C23.1165 5.90933 22.9832 5.87733 22.8552 5.856C22.7379 5.83467 22.5939 5.824 22.4232 5.824C22.1139 5.824 21.7939 5.936 21.4632 6.16C21.1325 6.384 20.8552 6.77867 20.6312 7.344V12H18.4392ZM26.6416 12.192C26.1722 12.192 25.7616 12.0907 25.4096 11.888C25.0576 11.6747 24.7802 11.392 24.5776 11.04C24.3856 10.6773 24.2896 10.272 24.2896 9.824C24.2896 8.992 24.6469 8.34133 25.3616 7.872C26.0762 7.40267 27.2282 7.08267 28.8176 6.912C28.8069 6.66667 28.7536 6.448 28.6576 6.256C28.5722 6.064 28.4336 5.91467 28.2416 5.808C28.0602 5.70133 27.8149 5.648 27.5056 5.648C27.1536 5.648 26.8016 5.71733 26.4496 5.856C26.1082 5.984 25.7509 6.16 25.3776 6.384L24.5776 4.928C24.8976 4.736 25.2389 4.56 25.6016 4.4C25.9642 4.24 26.3376 4.11733 26.7216 4.032C27.1056 3.936 27.5056 3.888 27.9216 3.888C28.5936 3.888 29.1589 4.02133 29.6176 4.288C30.0762 4.55467 30.4229 4.94933 30.6576 5.472C30.8922 5.984 31.0096 6.63467 31.0096 7.424V12H29.2176L29.0576 11.168H28.9936C28.6629 11.4667 28.3002 11.712 27.9056 11.904C27.5216 12.096 27.1002 12.192 26.6416 12.192ZM27.3776 10.496C27.6656 10.496 27.9162 10.432 28.1296 10.304C28.3536 10.1653 28.5829 9.984 28.8176 9.76V8.256C28.2096 8.33067 27.7296 8.43733 27.3776 8.576C27.0256 8.704 26.7749 8.864 26.6256 9.056C26.4762 9.23733 26.4016 9.43467 26.4016 9.648C26.4016 9.936 26.4922 10.1493 26.6736 10.288C26.8549 10.4267 27.0896 10.496 27.3776 10.496ZM39.7713 12.192C39.0246 12.192 38.3473 12.0267 37.7393 11.696C37.142 11.3653 36.6673 10.896 36.3153 10.288C35.9633 9.66933 35.7873 8.92267 35.7873 8.048C35.7873 7.19467 35.9633 6.45867 36.3153 5.84C36.678 5.22133 37.142 4.74133 37.7073 4.4C38.2726 4.05867 38.87 3.888 39.4993 3.888C40.2353 3.888 40.8486 4.05333 41.3393 4.384C41.8406 4.71467 42.214 5.168 42.4593 5.744C42.7153 6.30933 42.8433 6.95467 42.8433 7.68C42.8433 7.872 42.8326 8.064 42.8113 8.256C42.79 8.43733 42.7686 8.576 42.7473 8.672H37.5153L37.4993 7.216H40.9553C40.9553 6.72533 40.8433 6.33067 40.6193 6.032C40.3953 5.72267 40.038 5.568 39.5473 5.568C39.2593 5.568 38.982 5.648 38.7153 5.808C38.4486 5.968 38.23 6.23467 38.0593 6.608C37.8886 6.97067 37.8033 7.45067 37.8033 8.048C37.8033 8.656 37.91 9.14133 38.1233 9.504C38.3473 9.856 38.63 10.112 38.9713 10.272C39.3126 10.432 39.6753 10.512 40.0593 10.512C40.3793 10.512 40.678 10.4693 40.9553 10.384C41.2433 10.288 41.5313 10.1547 41.8193 9.984L42.5393 11.312C42.1446 11.5787 41.702 11.792 41.2113 11.952C40.7313 12.112 40.2513 12.192 39.7713 12.192ZM44.4861 12V4.08H46.2781L46.4381 5.104H46.5021C46.8434 4.77333 47.2167 4.49067 47.6221 4.256C48.0381 4.01067 48.5181 3.888 49.0621 3.888C49.9154 3.888 50.5341 4.17067 50.9181 4.736C51.3127 5.30133 51.5101 6.08 51.5101 7.072V12H49.3181V7.36C49.3181 6.76267 49.2327 6.34667 49.0621 6.112C48.8914 5.87733 48.6247 5.76 48.2621 5.76C47.9421 5.76 47.6701 5.83467 47.4461 5.984C47.2221 6.12267 46.9661 6.33067 46.6781 6.608V12H44.4861ZM56.5558 12.192C55.5958 12.192 54.9078 11.9147 54.4918 11.36C54.0865 10.8053 53.8838 10.08 53.8838 9.184V5.808H52.7958V4.176L54.0118 4.08L54.2678 1.968H56.0758V4.08H58.0118V5.808H56.0758V9.168C56.0758 9.616 56.1665 9.94667 56.3478 10.16C56.5398 10.3627 56.8011 10.464 57.1318 10.464C57.2705 10.464 57.4091 10.448 57.5478 10.416C57.6865 10.384 57.8091 10.3467 57.9158 10.304L58.2678 11.904C58.0545 11.968 57.8038 12.032 57.5158 12.096C57.2278 12.16 56.9078 12.192 56.5558 12.192ZM59.5954 12V4.08H61.3874L61.5474 5.472H61.6114C61.8994 4.94933 62.2408 4.55467 62.6354 4.288C63.0408 4.02133 63.4461 3.888 63.8514 3.888C64.0648 3.888 64.2461 3.904 64.3954 3.936C64.5448 3.95733 64.6728 3.99467 64.7794 4.048L64.4114 5.952C64.2728 5.90933 64.1394 5.87733 64.0114 5.856C63.8941 5.83467 63.7501 5.824 63.5794 5.824C63.2701 5.824 62.9501 5.936 62.6194 6.16C62.2888 6.384 62.0114 6.77867 61.7874 7.344V12H59.5954ZM67.7978 12.192C67.3285 12.192 66.9178 12.0907 66.5658 11.888C66.2138 11.6747 65.9365 11.392 65.7338 11.04C65.5418 10.6773 65.4458 10.272 65.4458 9.824C65.4458 8.992 65.8031 8.34133 66.5178 7.872C67.2325 7.40267 68.3845 7.08267 69.9738 6.912C69.9631 6.66667 69.9098 6.448 69.8138 6.256C69.7285 6.064 69.5898 5.91467 69.3978 5.808C69.2165 5.70133 68.9711 5.648 68.6618 5.648C68.3098 5.648 67.9578 5.71733 67.6058 5.856C67.2645 5.984 66.9071 6.16 66.5338 6.384L65.7338 4.928C66.0538 4.736 66.3951 4.56 66.7578 4.4C67.1205 4.24 67.4938 4.11733 67.8778 4.032C68.2618 3.936 68.6618 3.888 69.0778 3.888C69.7498 3.888 70.3151 4.02133 70.7738 4.288C71.2325 4.55467 71.5791 4.94933 71.8138 5.472C72.0485 5.984 72.1658 6.63467 72.1658 7.424V12H70.3738L70.2138 11.168H70.1498C69.8191 11.4667 69.4565 11.712 69.0618 11.904C68.6778 12.096 68.2565 12.192 67.7978 12.192ZM68.5338 10.496C68.8218 10.496 69.0725 10.432 69.2858 10.304C69.5098 10.1653 69.7391 9.984 69.9738 9.76V8.256C69.3658 8.33067 68.8858 8.43733 68.5338 8.576C68.1818 8.704 67.9311 8.864 67.7818 9.056C67.6325 9.23733 67.5578 9.43467 67.5578 9.648C67.5578 9.936 67.6485 10.1493 67.8298 10.288C68.0111 10.4267 68.2458 10.496 68.5338 10.496ZM74.2204 12V4.08H76.0124L76.1724 5.472H76.2364C76.5244 4.94933 76.8658 4.55467 77.2604 4.288C77.6658 4.02133 78.0711 3.888 78.4764 3.888C78.6898 3.888 78.8711 3.904 79.0204 3.936C79.1698 3.95733 79.2978 3.99467 79.4044 4.048L79.0364 5.952C78.8978 5.90933 78.7644 5.87733 78.6364 5.856C78.5191 5.83467 78.3751 5.824 78.2044 5.824C77.8951 5.824 77.5751 5.936 77.2444 6.16C76.9138 6.384 76.6364 6.77867 76.4124 7.344V12H74.2204ZM83.6579 12V4.08H85.4499L85.6099 5.104H85.6739C86.0153 4.77333 86.3886 4.49067 86.7939 4.256C87.2099 4.01067 87.6899 3.888 88.2339 3.888C89.0873 3.888 89.7059 4.17067 90.0899 4.736C90.4846 5.30133 90.6819 6.08 90.6819 7.072V12H88.4899V7.36C88.4899 6.76267 88.4046 6.34667 88.2339 6.112C88.0633 5.87733 87.7966 5.76 87.4339 5.76C87.1139 5.76 86.8419 5.83467 86.6179 5.984C86.3939 6.12267 86.1379 6.33067 85.8499 6.608V12H83.6579ZM94.7197 12.192C94.2504 12.192 93.8397 12.0907 93.4877 11.888C93.1357 11.6747 92.8584 11.392 92.6557 11.04C92.4637 10.6773 92.3677 10.272 92.3677 9.824C92.3677 8.992 92.725 8.34133 93.4397 7.872C94.1544 7.40267 95.3064 7.08267 96.8957 6.912C96.885 6.66667 96.8317 6.448 96.7357 6.256C96.6504 6.064 96.5117 5.91467 96.3197 5.808C96.1384 5.70133 95.893 5.648 95.5837 5.648C95.2317 5.648 94.8797 5.71733 94.5277 5.856C94.1864 5.984 93.829 6.16 93.4557 6.384L92.6557 4.928C92.9757 4.736 93.317 4.56 93.6797 4.4C94.0424 4.24 94.4157 4.11733 94.7997 4.032C95.1837 3.936 95.5837 3.888 95.9997 3.888C96.6717 3.888 97.237 4.02133 97.6957 4.288C98.1544 4.55467 98.501 4.94933 98.7357 5.472C98.9704 5.984 99.0877 6.63467 99.0877 7.424V12H97.2957L97.1357 11.168H97.0717C96.741 11.4667 96.3784 11.712 95.9837 11.904C95.5997 12.096 95.1784 12.192 94.7197 12.192ZM95.4557 10.496C95.7437 10.496 95.9944 10.432 96.2077 10.304C96.4317 10.1653 96.661 9.984 96.8957 9.76V8.256C96.2877 8.33067 95.8077 8.43733 95.4557 8.576C95.1037 8.704 94.853 8.864 94.7037 9.056C94.5544 9.23733 94.4797 9.43467 94.4797 9.648C94.4797 9.936 94.5704 10.1493 94.7517 10.288C94.933 10.4267 95.1677 10.496 95.4557 10.496ZM104.345 12V4.08H106.137L106.297 5.104H106.361C106.703 4.77333 107.076 4.49067 107.481 4.256C107.897 4.01067 108.377 3.888 108.921 3.888C109.775 3.888 110.393 4.17067 110.777 4.736C111.172 5.30133 111.369 6.08 111.369 7.072V12H109.177V7.36C109.177 6.76267 109.092 6.34667 108.921 6.112C108.751 5.87733 108.484 5.76 108.121 5.76C107.801 5.76 107.529 5.83467 107.305 5.984C107.081 6.12267 106.825 6.33067 106.537 6.608V12H104.345ZM116.799 12.192C116.127 12.192 115.498 12.032 114.911 11.712C114.335 11.3813 113.866 10.9067 113.503 10.288C113.141 9.66933 112.959 8.92267 112.959 8.048C112.959 7.17333 113.141 6.42667 113.503 5.808C113.866 5.18933 114.335 4.71467 114.911 4.384C115.498 4.05333 116.127 3.888 116.799 3.888C117.461 3.888 118.079 4.05333 118.655 4.384C119.242 4.71467 119.717 5.18933 120.079 5.808C120.442 6.42667 120.623 7.17333 120.623 8.048C120.623 8.92267 120.442 9.66933 120.079 10.288C119.717 10.9067 119.242 11.3813 118.655 11.712C118.079 12.032 117.461 12.192 116.799 12.192ZM116.799 10.416C117.141 10.416 117.429 10.32 117.663 10.128C117.898 9.936 118.074 9.664 118.191 9.312C118.309 8.94933 118.367 8.528 118.367 8.048C118.367 7.568 118.309 7.152 118.191 6.8C118.074 6.43733 117.898 6.16 117.663 5.968C117.429 5.76533 117.141 5.664 116.799 5.664C116.447 5.664 116.154 5.76533 115.919 5.968C115.685 6.16 115.509 6.43733 115.391 6.8C115.274 7.152 115.215 7.568 115.215 8.048C115.215 8.528 115.274 8.94933 115.391 9.312C115.509 9.664 115.685 9.936 115.919 10.128C116.154 10.32 116.447 10.416 116.799 10.416ZM124.587 12.192C124.064 12.192 123.526 12.0907 122.971 11.888C122.427 11.6747 121.958 11.408 121.563 11.088L122.555 9.712C122.918 9.97867 123.27 10.1867 123.611 10.336C123.952 10.4853 124.299 10.56 124.651 10.56C125.024 10.56 125.296 10.4907 125.467 10.352C125.638 10.2133 125.723 10.0267 125.723 9.792C125.723 9.61067 125.643 9.456 125.483 9.328C125.334 9.18933 125.131 9.072 124.875 8.976C124.63 8.86933 124.368 8.76267 124.091 8.656C123.76 8.528 123.43 8.368 123.099 8.176C122.779 7.984 122.507 7.73867 122.283 7.44C122.07 7.14133 121.963 6.77333 121.963 6.336C121.963 5.61067 122.235 5.024 122.779 4.576C123.323 4.11733 124.043 3.888 124.939 3.888C125.536 3.888 126.059 3.98933 126.507 4.192C126.955 4.39467 127.344 4.624 127.675 4.88L126.699 6.208C126.411 5.99467 126.128 5.82933 125.851 5.712C125.574 5.584 125.291 5.52 125.003 5.52C124.672 5.52 124.422 5.58933 124.251 5.728C124.091 5.856 124.011 6.02667 124.011 6.24C124.011 6.41067 124.086 6.55467 124.235 6.672C124.384 6.78933 124.582 6.896 124.827 6.992C125.072 7.088 125.334 7.184 125.611 7.28C125.952 7.408 126.288 7.568 126.619 7.76C126.95 7.94133 127.227 8.18667 127.451 8.496C127.675 8.79467 127.787 9.184 127.787 9.664C127.787 10.1333 127.664 10.56 127.419 10.944C127.174 11.328 126.811 11.632 126.331 11.856C125.862 12.08 125.28 12.192 124.587 12.192ZM131.618 12.192C131.096 12.192 130.557 12.0907 130.002 11.888C129.458 11.6747 128.989 11.408 128.594 11.088L129.586 9.712C129.949 9.97867 130.301 10.1867 130.642 10.336C130.984 10.4853 131.33 10.56 131.682 10.56C132.056 10.56 132.328 10.4907 132.498 10.352C132.669 10.2133 132.754 10.0267 132.754 9.792C132.754 9.61067 132.674 9.456 132.514 9.328C132.365 9.18933 132.162 9.072 131.906 8.976C131.661 8.86933 131.4 8.76267 131.122 8.656C130.792 8.528 130.461 8.368 130.13 8.176C129.81 7.984 129.538 7.73867 129.314 7.44C129.101 7.14133 128.994 6.77333 128.994 6.336C128.994 5.61067 129.266 5.024 129.81 4.576C130.354 4.11733 131.074 3.888 131.97 3.888C132.568 3.888 133.09 3.98933 133.538 4.192C133.986 4.39467 134.376 4.624 134.706 4.88L133.73 6.208C133.442 5.99467 133.16 5.82933 132.882 5.712C132.605 5.584 132.322 5.52 132.034 5.52C131.704 5.52 131.453 5.58933 131.282 5.728C131.122 5.856 131.042 6.02667 131.042 6.24C131.042 6.41067 131.117 6.55467 131.266 6.672C131.416 6.78933 131.613 6.896 131.858 6.992C132.104 7.088 132.365 7.184 132.642 7.28C132.984 7.408 133.32 7.568 133.65 7.76C133.981 7.94133 134.258 8.18667 134.482 8.496C134.706 8.79467 134.818 9.184 134.818 9.664C134.818 10.1333 134.696 10.56 134.45 10.944C134.205 11.328 133.842 11.632 133.362 11.856C132.893 12.08 132.312 12.192 131.618 12.192ZM138.313 12.192C137.844 12.192 137.433 12.0907 137.081 11.888C136.729 11.6747 136.452 11.392 136.249 11.04C136.057 10.6773 135.961 10.272 135.961 9.824C135.961 8.992 136.319 8.34133 137.033 7.872C137.748 7.40267 138.9 7.08267 140.489 6.912C140.479 6.66667 140.425 6.448 140.329 6.256C140.244 6.064 140.105 5.91467 139.913 5.808C139.732 5.70133 139.487 5.648 139.177 5.648C138.825 5.648 138.473 5.71733 138.121 5.856C137.78 5.984 137.423 6.16 137.049 6.384L136.249 4.928C136.569 4.736 136.911 4.56 137.273 4.4C137.636 4.24 138.009 4.11733 138.393 4.032C138.777 3.936 139.177 3.888 139.593 3.888C140.265 3.888 140.831 4.02133 141.289 4.288C141.748 4.55467 142.095 4.94933 142.329 5.472C142.564 5.984 142.681 6.63467 142.681 7.424V12H140.889L140.729 11.168H140.665C140.335 11.4667 139.972 11.712 139.577 11.904C139.193 12.096 138.772 12.192 138.313 12.192ZM139.049 10.496C139.337 10.496 139.588 10.432 139.801 10.304C140.025 10.1653 140.255 9.984 140.489 9.76V8.256C139.881 8.33067 139.401 8.43733 139.049 8.576C138.697 8.704 138.447 8.864 138.297 9.056C138.148 9.23733 138.073 9.43467 138.073 9.648C138.073 9.936 138.164 10.1493 138.345 10.288C138.527 10.4267 138.761 10.496 139.049 10.496ZM147.939 14.992V4.08H149.731L149.891 4.88H149.955C150.275 4.60267 150.633 4.368 151.027 4.176C151.422 3.984 151.827 3.888 152.243 3.888C152.894 3.888 153.449 4.05867 153.907 4.4C154.366 4.73067 154.718 5.2 154.963 5.808C155.219 6.40533 155.347 7.10933 155.347 7.92C155.347 8.82667 155.187 9.6 154.867 10.24C154.547 10.8693 154.131 11.3547 153.619 11.696C153.118 12.0267 152.579 12.192 152.003 12.192C151.662 12.192 151.326 12.1227 150.995 11.984C150.665 11.8347 150.355 11.6267 150.067 11.36L150.131 12.624V14.992H147.939ZM151.507 10.4C151.795 10.4 152.062 10.3147 152.307 10.144C152.553 9.96267 152.745 9.69067 152.883 9.328C153.022 8.96533 153.091 8.50133 153.091 7.936C153.091 7.456 153.038 7.05067 152.931 6.72C152.825 6.37867 152.659 6.12267 152.435 5.952C152.222 5.78133 151.95 5.696 151.619 5.696C151.363 5.696 151.118 5.75467 150.883 5.872C150.649 5.98933 150.398 6.18667 150.131 6.464V9.84C150.366 10.0427 150.601 10.1867 150.835 10.272C151.081 10.3573 151.305 10.4 151.507 10.4ZM159.112 12.192C158.611 12.192 158.211 12.0907 157.912 11.888C157.614 11.6747 157.395 11.3813 157.256 11.008C157.128 10.6347 157.064 10.192 157.064 9.68V0.768H159.256V9.776C159.256 10.0107 159.299 10.176 159.384 10.272C159.48 10.368 159.576 10.416 159.672 10.416C159.726 10.416 159.768 10.416 159.8 10.416C159.843 10.4053 159.896 10.3947 159.96 10.384L160.232 12C160.104 12.0533 159.95 12.096 159.768 12.128C159.587 12.1707 159.368 12.192 159.112 12.192ZM163.532 12.192C163.063 12.192 162.652 12.0907 162.3 11.888C161.948 11.6747 161.671 11.392 161.468 11.04C161.276 10.6773 161.18 10.272 161.18 9.824C161.18 8.992 161.538 8.34133 162.252 7.872C162.967 7.40267 164.119 7.08267 165.708 6.912C165.698 6.66667 165.644 6.448 165.548 6.256C165.463 6.064 165.324 5.91467 165.132 5.808C164.951 5.70133 164.706 5.648 164.396 5.648C164.044 5.648 163.692 5.71733 163.34 5.856C162.999 5.984 162.642 6.16 162.268 6.384L161.468 4.928C161.788 4.736 162.13 4.56 162.492 4.4C162.855 4.24 163.228 4.11733 163.612 4.032C163.996 3.936 164.396 3.888 164.812 3.888C165.484 3.888 166.05 4.02133 166.508 4.288C166.967 4.55467 167.314 4.94933 167.548 5.472C167.783 5.984 167.9 6.63467 167.9 7.424V12H166.108L165.948 11.168H165.884C165.554 11.4667 165.191 11.712 164.796 11.904C164.412 12.096 163.991 12.192 163.532 12.192ZM164.268 10.496C164.556 10.496 164.807 10.432 165.02 10.304C165.244 10.1653 165.474 9.984 165.708 9.76V8.256C165.1 8.33067 164.62 8.43733 164.268 8.576C163.916 8.704 163.666 8.864 163.516 9.056C163.367 9.23733 163.292 9.43467 163.292 9.648C163.292 9.936 163.383 10.1493 163.564 10.288C163.746 10.4267 163.98 10.496 164.268 10.496ZM172.931 12.192C171.971 12.192 171.283 11.9147 170.867 11.36C170.461 10.8053 170.259 10.08 170.259 9.184V5.808H169.171V4.176L170.387 4.08L170.643 1.968H172.451V4.08H174.387V5.808H172.451V9.168C172.451 9.616 172.541 9.94667 172.723 10.16C172.915 10.3627 173.176 10.464 173.507 10.464C173.645 10.464 173.784 10.448 173.923 10.416C174.061 10.384 174.184 10.3467 174.291 10.304L174.643 11.904C174.429 11.968 174.179 12.032 173.891 12.096C173.603 12.16 173.283 12.192 172.931 12.192ZM177.938 12.192C177.469 12.192 177.058 12.0907 176.706 11.888C176.354 11.6747 176.077 11.392 175.874 11.04C175.682 10.6773 175.586 10.272 175.586 9.824C175.586 8.992 175.944 8.34133 176.658 7.872C177.373 7.40267 178.525 7.08267 180.114 6.912C180.104 6.66667 180.05 6.448 179.954 6.256C179.869 6.064 179.73 5.91467 179.538 5.808C179.357 5.70133 179.112 5.648 178.802 5.648C178.45 5.648 178.098 5.71733 177.746 5.856C177.405 5.984 177.048 6.16 176.674 6.384L175.874 4.928C176.194 4.736 176.536 4.56 176.898 4.4C177.261 4.24 177.634 4.11733 178.018 4.032C178.402 3.936 178.802 3.888 179.218 3.888C179.89 3.888 180.456 4.02133 180.914 4.288C181.373 4.55467 181.72 4.94933 181.954 5.472C182.189 5.984 182.306 6.63467 182.306 7.424V12H180.514L180.354 11.168H180.29C179.96 11.4667 179.597 11.712 179.202 11.904C178.818 12.096 178.397 12.192 177.938 12.192ZM178.674 10.496C178.962 10.496 179.213 10.432 179.426 10.304C179.65 10.1653 179.88 9.984 180.114 9.76V8.256C179.506 8.33067 179.026 8.43733 178.674 8.576C178.322 8.704 178.072 8.864 177.922 9.056C177.773 9.23733 177.698 9.43467 177.698 9.648C177.698 9.936 177.789 10.1493 177.97 10.288C178.152 10.4267 178.386 10.496 178.674 10.496ZM184.745 12V3.552C184.745 2.98667 184.836 2.48 185.017 2.032C185.198 1.584 185.497 1.232 185.913 0.976C186.329 0.709333 186.878 0.575999 187.561 0.575999C187.881 0.575999 188.174 0.607999 188.441 0.672C188.708 0.725333 188.926 0.784 189.097 0.848L188.697 2.464C188.558 2.4 188.42 2.35733 188.281 2.336C188.142 2.304 188.004 2.288 187.865 2.288C187.566 2.288 187.337 2.384 187.177 2.576C187.017 2.75733 186.937 3.06133 186.937 3.488V12H184.745ZM183.689 5.808V4.176L184.857 4.08H188.393V5.808H183.689ZM193.049 12.192C192.377 12.192 191.748 12.032 191.161 11.712C190.585 11.3813 190.116 10.9067 189.753 10.288C189.391 9.66933 189.209 8.92267 189.209 8.048C189.209 7.17333 189.391 6.42667 189.753 5.808C190.116 5.18933 190.585 4.71467 191.161 4.384C191.748 4.05333 192.377 3.888 193.049 3.888C193.711 3.888 194.329 4.05333 194.905 4.384C195.492 4.71467 195.967 5.18933 196.329 5.808C196.692 6.42667 196.873 7.17333 196.873 8.048C196.873 8.92267 196.692 9.66933 196.329 10.288C195.967 10.9067 195.492 11.3813 194.905 11.712C194.329 12.032 193.711 12.192 193.049 12.192ZM193.049 10.416C193.391 10.416 193.679 10.32 193.913 10.128C194.148 9.936 194.324 9.664 194.441 9.312C194.559 8.94933 194.617 8.528 194.617 8.048C194.617 7.568 194.559 7.152 194.441 6.8C194.324 6.43733 194.148 6.16 193.913 5.968C193.679 5.76533 193.391 5.664 193.049 5.664C192.697 5.664 192.404 5.76533 192.169 5.968C191.935 6.16 191.759 6.43733 191.641 6.8C191.524 7.152 191.465 7.568 191.465 8.048C191.465 8.528 191.524 8.94933 191.641 9.312C191.759 9.664 191.935 9.936 192.169 10.128C192.404 10.32 192.697 10.416 193.049 10.416ZM198.533 12V4.08H200.325L200.485 5.472H200.549C200.837 4.94933 201.178 4.55467 201.573 4.288C201.978 4.02133 202.384 3.888 202.789 3.888C203.002 3.888 203.184 3.904 203.333 3.936C203.482 3.95733 203.61 3.99467 203.717 4.048L203.349 5.952C203.21 5.90933 203.077 5.87733 202.949 5.856C202.832 5.83467 202.688 5.824 202.517 5.824C202.208 5.824 201.888 5.936 201.557 6.16C201.226 6.384 200.949 6.77867 200.725 7.344V12H198.533ZM204.767 12V4.08H206.559L206.719 5.12H206.783C207.103 4.78933 207.455 4.50133 207.839 4.256C208.223 4.01067 208.671 3.888 209.183 3.888C209.749 3.888 210.207 4.01067 210.559 4.256C210.911 4.49067 211.183 4.82133 211.375 5.248C211.727 4.87467 212.101 4.55467 212.495 4.288C212.901 4.02133 213.359 3.888 213.871 3.888C214.725 3.888 215.349 4.17067 215.743 4.736C216.138 5.30133 216.335 6.08 216.335 7.072V12H214.143V7.36C214.143 6.76267 214.058 6.34667 213.887 6.112C213.727 5.87733 213.466 5.76 213.103 5.76C212.879 5.76 212.65 5.82933 212.415 5.968C212.181 6.10667 211.925 6.32 211.647 6.608V12H209.455V7.36C209.455 6.76267 209.37 6.34667 209.199 6.112C209.039 5.87733 208.778 5.76 208.415 5.76C207.978 5.76 207.493 6.04267 206.959 6.608V12H204.767ZM220.376 12.192C219.907 12.192 219.496 12.0907 219.144 11.888C218.792 11.6747 218.515 11.392 218.312 11.04C218.12 10.6773 218.024 10.272 218.024 9.824C218.024 8.992 218.381 8.34133 219.096 7.872C219.811 7.40267 220.963 7.08267 222.552 6.912C222.541 6.66667 222.488 6.448 222.392 6.256C222.307 6.064 222.168 5.91467 221.976 5.808C221.795 5.70133 221.549 5.648 221.24 5.648C220.888 5.648 220.536 5.71733 220.184 5.856C219.843 5.984 219.485 6.16 219.112 6.384L218.312 4.928C218.632 4.736 218.973 4.56 219.336 4.4C219.699 4.24 220.072 4.11733 220.456 4.032C220.84 3.936 221.24 3.888 221.656 3.888C222.328 3.888 222.893 4.02133 223.352 4.288C223.811 4.55467 224.157 4.94933 224.392 5.472C224.627 5.984 224.744 6.63467 224.744 7.424V12H222.952L222.792 11.168H222.728C222.397 11.4667 222.035 11.712 221.64 11.904C221.256 12.096 220.835 12.192 220.376 12.192ZM221.112 10.496C221.4 10.496 221.651 10.432 221.864 10.304C222.088 10.1653 222.317 9.984 222.552 9.76V8.256C221.944 8.33067 221.464 8.43733 221.112 8.576C220.76 8.704 220.509 8.864 220.36 9.056C220.211 9.23733 220.136 9.43467 220.136 9.648C220.136 9.936 220.227 10.1493 220.408 10.288C220.589 10.4267 220.824 10.496 221.112 10.496ZM230.386 12V3.552C230.386 2.98667 230.476 2.48 230.658 2.032C230.839 1.584 231.138 1.232 231.554 0.976C231.97 0.709333 232.519 0.575999 233.202 0.575999C233.522 0.575999 233.815 0.607999 234.082 0.672C234.348 0.725333 234.567 0.784 234.738 0.848L234.338 2.464C234.199 2.4 234.06 2.35733 233.922 2.336C233.783 2.304 233.644 2.288 233.506 2.288C233.207 2.288 232.978 2.384 232.818 2.576C232.658 2.75733 232.578 3.06133 232.578 3.488V12H230.386ZM229.33 5.808V4.176L230.498 4.08H234.034V5.808H229.33ZM237.298 12.192C236.828 12.192 236.418 12.0907 236.066 11.888C235.714 11.6747 235.436 11.392 235.234 11.04C235.042 10.6773 234.946 10.272 234.946 9.824C234.946 8.992 235.303 8.34133 236.018 7.872C236.732 7.40267 237.884 7.08267 239.474 6.912C239.463 6.66667 239.41 6.448 239.314 6.256C239.228 6.064 239.09 5.91467 238.898 5.808C238.716 5.70133 238.471 5.648 238.162 5.648C237.81 5.648 237.458 5.71733 237.106 5.856C236.764 5.984 236.407 6.16 236.034 6.384L235.234 4.928C235.554 4.736 235.895 4.56 236.258 4.4C236.62 4.24 236.994 4.11733 237.378 4.032C237.762 3.936 238.162 3.888 238.578 3.888C239.25 3.888 239.815 4.02133 240.274 4.288C240.732 4.55467 241.079 4.94933 241.314 5.472C241.548 5.984 241.666 6.63467 241.666 7.424V12H239.874L239.714 11.168H239.65C239.319 11.4667 238.956 11.712 238.562 11.904C238.178 12.096 237.756 12.192 237.298 12.192ZM238.034 10.496C238.322 10.496 238.572 10.432 238.786 10.304C239.01 10.1653 239.239 9.984 239.474 9.76V8.256C238.866 8.33067 238.386 8.43733 238.034 8.576C237.682 8.704 237.431 8.864 237.282 9.056C237.132 9.23733 237.058 9.43467 237.058 9.648C237.058 9.936 237.148 10.1493 237.33 10.288C237.511 10.4267 237.746 10.496 238.034 10.496ZM247.128 12.192C246.403 12.192 245.747 12.032 245.16 11.712C244.574 11.3813 244.104 10.9067 243.752 10.288C243.411 9.66933 243.24 8.92267 243.24 8.048C243.24 7.17333 243.432 6.42667 243.816 5.808C244.2 5.18933 244.702 4.71467 245.32 4.384C245.939 4.05333 246.606 3.888 247.32 3.888C247.811 3.888 248.248 3.97333 248.632 4.144C249.016 4.304 249.352 4.50667 249.64 4.752L248.584 6.176C248.392 5.99467 248.206 5.86667 248.024 5.792C247.854 5.70667 247.662 5.664 247.448 5.664C247.054 5.664 246.707 5.76533 246.408 5.968C246.12 6.16 245.896 6.43733 245.736 6.8C245.576 7.152 245.496 7.568 245.496 8.048C245.496 8.528 245.576 8.94933 245.736 9.312C245.896 9.664 246.115 9.936 246.392 10.128C246.68 10.32 247.006 10.416 247.368 10.416C247.646 10.416 247.912 10.3573 248.168 10.24C248.424 10.1227 248.654 9.97867 248.856 9.808L249.736 11.248C249.352 11.5787 248.931 11.8187 248.472 11.968C248.014 12.1173 247.566 12.192 247.128 12.192ZM245.48 15.792L245.32 14.896C245.95 14.8533 246.382 14.7787 246.616 14.672C246.851 14.5653 246.968 14.4 246.968 14.176C246.968 14.0053 246.883 13.8613 246.712 13.744C246.552 13.6373 246.232 13.552 245.752 13.488L246.504 11.936H247.8L247.352 12.976C247.747 13.072 248.046 13.2107 248.248 13.392C248.462 13.5733 248.568 13.8347 248.568 14.176C248.568 14.6987 248.296 15.088 247.752 15.344C247.219 15.6107 246.462 15.76 245.48 15.792ZM253.142 12.192C252.672 12.192 252.262 12.0907 251.91 11.888C251.558 11.6747 251.28 11.392 251.078 11.04C250.886 10.6773 250.79 10.272 250.79 9.824C250.79 8.992 251.147 8.34133 251.862 7.872C252.576 7.40267 253.728 7.08267 255.318 6.912C255.307 6.66667 255.254 6.448 255.158 6.256C255.072 6.064 254.934 5.91467 254.742 5.808C254.56 5.70133 254.315 5.648 254.006 5.648C253.654 5.648 253.302 5.71733 252.95 5.856C252.608 5.984 252.251 6.16 251.878 6.384L251.078 4.928C251.398 4.736 251.739 4.56 252.102 4.4C252.464 4.24 252.838 4.11733 253.222 4.032C253.606 3.936 254.006 3.888 254.422 3.888C255.094 3.888 255.659 4.02133 256.118 4.288C256.576 4.55467 256.923 4.94933 257.158 5.472C257.392 5.984 257.51 6.63467 257.51 7.424V12H255.718L255.558 11.168H255.494C255.163 11.4667 254.8 11.712 254.406 11.904C254.022 12.096 253.6 12.192 253.142 12.192ZM253.878 10.496C254.166 10.496 254.416 10.432 254.63 10.304C254.854 10.1653 255.083 9.984 255.318 9.76V8.256C254.71 8.33067 254.23 8.43733 253.878 8.576C253.526 8.704 253.275 8.864 253.126 9.056C252.976 9.23733 252.902 9.43467 252.902 9.648C252.902 9.936 252.992 10.1493 253.174 10.288C253.355 10.4267 253.59 10.496 253.878 10.496ZM56.7763 33.192C56.2749 33.192 55.8749 33.0907 55.5763 32.888C55.2776 32.6747 55.0589 32.3813 54.9203 32.008C54.7923 31.6347 54.7283 31.192 54.7283 30.68V21.768H56.9203V30.776C56.9203 31.0107 56.9629 31.176 57.0483 31.272C57.1443 31.368 57.2403 31.416 57.3363 31.416C57.3896 31.416 57.4323 31.416 57.4643 31.416C57.5069 31.4053 57.5603 31.3947 57.6243 31.384L57.8963 33C57.7683 33.0533 57.6136 33.096 57.4323 33.128C57.2509 33.1707 57.0323 33.192 56.7763 33.192ZM62.5883 33.192C61.9163 33.192 61.2869 33.032 60.7003 32.712C60.1243 32.3813 59.6549 31.9067 59.2923 31.288C58.9296 30.6693 58.7483 29.9227 58.7483 29.048C58.7483 28.1733 58.9296 27.4267 59.2923 26.808C59.6549 26.1893 60.1243 25.7147 60.7003 25.384C61.2869 25.0533 61.9163 24.888 62.5883 24.888C63.2496 24.888 63.8683 25.0533 64.4443 25.384C65.0309 25.7147 65.5056 26.1893 65.8683 26.808C66.2309 27.4267 66.4123 28.1733 66.4123 29.048C66.4123 29.9227 66.2309 30.6693 65.8683 31.288C65.5056 31.9067 65.0309 32.3813 64.4443 32.712C63.8683 33.032 63.2496 33.192 62.5883 33.192ZM62.5883 31.416C62.9296 31.416 63.2176 31.32 63.4523 31.128C63.6869 30.936 63.8629 30.664 63.9803 30.312C64.0976 29.9493 64.1563 29.528 64.1563 29.048C64.1563 28.568 64.0976 28.152 63.9803 27.8C63.8629 27.4373 63.6869 27.16 63.4523 26.968C63.2176 26.7653 62.9296 26.664 62.5883 26.664C62.2363 26.664 61.9429 26.7653 61.7083 26.968C61.4736 27.16 61.2976 27.4373 61.1803 27.8C61.0629 28.152 61.0043 28.568 61.0043 29.048C61.0043 29.528 61.0629 29.9493 61.1803 30.312C61.2976 30.664 61.4736 30.936 61.7083 31.128C61.9429 31.32 62.2363 31.416 62.5883 31.416ZM70.872 36.408C70.2533 36.408 69.6933 36.3333 69.192 36.184C68.6907 36.0453 68.296 35.8267 68.008 35.528C67.72 35.2293 67.576 34.8453 67.576 34.376C67.576 34.0453 67.672 33.7413 67.864 33.464C68.0667 33.1973 68.344 32.9627 68.696 32.76V32.696C68.504 32.5573 68.3333 32.3813 68.184 32.168C68.0453 31.944 67.976 31.672 67.976 31.352C67.976 31.064 68.0613 30.792 68.232 30.536C68.4133 30.2693 68.6213 30.0507 68.856 29.88V29.816C68.5893 29.6133 68.344 29.336 68.12 28.984C67.9067 28.6213 67.8 28.2107 67.8 27.752C67.8 27.1227 67.9493 26.6 68.248 26.184C68.5573 25.7573 68.9573 25.4373 69.448 25.224C69.9387 25 70.4667 24.888 71.032 24.888C71.256 24.888 71.4693 24.9093 71.672 24.952C71.8853 24.984 72.0773 25.0267 72.248 25.08H75.112V26.696H73.784C73.88 26.824 73.96 26.9893 74.024 27.192C74.088 27.384 74.12 27.592 74.12 27.816C74.12 28.424 73.9813 28.9253 73.704 29.32C73.4267 29.7147 73.0533 30.008 72.584 30.2C72.1253 30.392 71.608 30.488 71.032 30.488C70.8827 30.488 70.7227 30.4773 70.552 30.456C70.392 30.424 70.2213 30.3813 70.04 30.328C69.9333 30.4133 69.8533 30.504 69.8 30.6C69.7467 30.6853 69.72 30.808 69.72 30.968C69.72 31.1707 69.8107 31.3253 69.992 31.432C70.184 31.5387 70.4987 31.592 70.936 31.592H72.264C73.224 31.592 73.96 31.752 74.472 32.072C74.984 32.3813 75.24 32.8827 75.24 33.576C75.24 34.12 75.0587 34.6053 74.696 35.032C74.344 35.4587 73.8427 35.7947 73.192 36.04C72.5413 36.2853 71.768 36.408 70.872 36.408ZM71.224 35.016C71.5973 35.016 71.928 34.968 72.216 34.872C72.504 34.7867 72.728 34.6587 72.888 34.488C73.0587 34.328 73.144 34.1467 73.144 33.944C73.144 33.6773 73.032 33.5013 72.808 33.416C72.5947 33.3307 72.2853 33.288 71.88 33.288H70.968C70.7227 33.288 70.5147 33.2773 70.344 33.256C70.1733 33.2347 70.0187 33.208 69.88 33.176C69.7093 33.3147 69.5813 33.4533 69.496 33.592C69.4213 33.7307 69.384 33.88 69.384 34.04C69.384 34.36 69.5493 34.6 69.88 34.76C70.2213 34.9307 70.6693 35.016 71.224 35.016ZM71.032 29.16C71.256 29.16 71.4533 29.1067 71.624 29C71.8053 28.8933 71.944 28.7333 72.04 28.52C72.1467 28.3067 72.2 28.0507 72.2 27.752C72.2 27.4533 72.1467 27.2027 72.04 27C71.944 26.7973 71.8053 26.6427 71.624 26.536C71.4533 26.4293 71.256 26.376 71.032 26.376C70.7013 26.376 70.424 26.4933 70.2 26.728C69.976 26.9627 69.864 27.304 69.864 27.752C69.864 28.0507 69.912 28.3067 70.008 28.52C70.1147 28.7333 70.2533 28.8933 70.424 29C70.6053 29.1067 70.808 29.16 71.032 29.16ZM76.5564 33V25.08H78.7484V33H76.5564ZM77.6604 23.864C77.3084 23.864 77.015 23.752 76.7804 23.528C76.5457 23.304 76.4284 23.0213 76.4284 22.68C76.4284 22.3387 76.5457 22.0613 76.7804 21.848C77.015 21.624 77.3084 21.512 77.6604 21.512C78.023 21.512 78.3164 21.624 78.5404 21.848C78.775 22.0613 78.8924 22.3387 78.8924 22.68C78.8924 23.0213 78.775 23.304 78.5404 23.528C78.3164 23.752 78.023 23.864 77.6604 23.864ZM80.9158 33V25.08H82.7078L82.8678 26.104H82.9318C83.2731 25.7733 83.6464 25.4907 84.0518 25.256C84.4678 25.0107 84.9478 24.888 85.4918 24.888C86.3451 24.888 86.9638 25.1707 87.3478 25.736C87.7424 26.3013 87.9398 27.08 87.9398 28.072V33H85.7478V28.36C85.7478 27.7627 85.6624 27.3467 85.4918 27.112C85.3211 26.8773 85.0544 26.76 84.6918 26.76C84.3718 26.76 84.0998 26.8347 83.8758 26.984C83.6518 27.1227 83.3958 27.3307 83.1078 27.608V33H80.9158ZM96.6206 33.192C95.8953 33.192 95.2393 33.032 94.6526 32.712C94.066 32.3813 93.5966 31.9067 93.2446 31.288C92.9033 30.6693 92.7326 29.9227 92.7326 29.048C92.7326 28.1733 92.9246 27.4267 93.3086 26.808C93.6926 26.1893 94.194 25.7147 94.8126 25.384C95.4313 25.0533 96.098 24.888 96.8126 24.888C97.3033 24.888 97.7406 24.9733 98.1246 25.144C98.5086 25.304 98.8446 25.5067 99.1326 25.752L98.0766 27.176C97.8846 26.9947 97.698 26.8667 97.5166 26.792C97.346 26.7067 97.154 26.664 96.9406 26.664C96.546 26.664 96.1993 26.7653 95.9006 26.968C95.6126 27.16 95.3886 27.4373 95.2286 27.8C95.0686 28.152 94.9886 28.568 94.9886 29.048C94.9886 29.528 95.0686 29.9493 95.2286 30.312C95.3886 30.664 95.6073 30.936 95.8846 31.128C96.1726 31.32 96.498 31.416 96.8606 31.416C97.138 31.416 97.4046 31.3573 97.6606 31.24C97.9166 31.1227 98.146 30.9787 98.3486 30.808L99.2286 32.248C98.8446 32.5787 98.4233 32.8187 97.9646 32.968C97.506 33.1173 97.058 33.192 96.6206 33.192ZM104.026 33.192C103.354 33.192 102.724 33.032 102.138 32.712C101.562 32.3813 101.092 31.9067 100.73 31.288C100.367 30.6693 100.186 29.9227 100.186 29.048C100.186 28.1733 100.367 27.4267 100.73 26.808C101.092 26.1893 101.562 25.7147 102.138 25.384C102.724 25.0533 103.354 24.888 104.026 24.888C104.687 24.888 105.306 25.0533 105.882 25.384C106.468 25.7147 106.943 26.1893 107.306 26.808C107.668 27.4267 107.85 28.1733 107.85 29.048C107.85 29.9227 107.668 30.6693 107.306 31.288C106.943 31.9067 106.468 32.3813 105.882 32.712C105.306 33.032 104.687 33.192 104.026 33.192ZM104.026 31.416C104.367 31.416 104.655 31.32 104.89 31.128C105.124 30.936 105.3 30.664 105.418 30.312C105.535 29.9493 105.594 29.528 105.594 29.048C105.594 28.568 105.535 28.152 105.418 27.8C105.3 27.4373 105.124 27.16 104.89 26.968C104.655 26.7653 104.367 26.664 104.026 26.664C103.674 26.664 103.38 26.7653 103.146 26.968C102.911 27.16 102.735 27.4373 102.618 27.8C102.5 28.152 102.442 28.568 102.442 29.048C102.442 29.528 102.5 29.9493 102.618 30.312C102.735 30.664 102.911 30.936 103.146 31.128C103.38 31.32 103.674 31.416 104.026 31.416ZM109.51 33V25.08H111.302L111.462 26.12H111.526C111.846 25.7893 112.198 25.5013 112.582 25.256C112.966 25.0107 113.414 24.888 113.926 24.888C114.491 24.888 114.95 25.0107 115.302 25.256C115.654 25.4907 115.926 25.8213 116.118 26.248C116.47 25.8747 116.843 25.5547 117.238 25.288C117.643 25.0213 118.102 24.888 118.614 24.888C119.467 24.888 120.091 25.1707 120.486 25.736C120.88 26.3013 121.078 27.08 121.078 28.072V33H118.886V28.36C118.886 27.7627 118.8 27.3467 118.63 27.112C118.47 26.8773 118.208 26.76 117.845 26.76C117.622 26.76 117.392 26.8293 117.158 26.968C116.923 27.1067 116.667 27.32 116.39 27.608V33H114.198V28.36C114.198 27.7627 114.112 27.3467 113.942 27.112C113.782 26.8773 113.52 26.76 113.158 26.76C112.72 26.76 112.235 27.0427 111.702 27.608V33H109.51ZM128.321 33.192C127.852 33.192 127.441 33.0907 127.089 32.888C126.737 32.6747 126.46 32.392 126.257 32.04C126.065 31.6773 125.969 31.272 125.969 30.824C125.969 29.992 126.327 29.3413 127.041 28.872C127.756 28.4027 128.908 28.0827 130.497 27.912C130.487 27.6667 130.433 27.448 130.337 27.256C130.252 27.064 130.113 26.9147 129.921 26.808C129.74 26.7013 129.495 26.648 129.185 26.648C128.833 26.648 128.481 26.7173 128.129 26.856C127.788 26.984 127.431 27.16 127.057 27.384L126.257 25.928C126.577 25.736 126.919 25.56 127.281 25.4C127.644 25.24 128.017 25.1173 128.401 25.032C128.785 24.936 129.185 24.888 129.601 24.888C130.273 24.888 130.839 25.0213 131.297 25.288C131.756 25.5547 132.103 25.9493 132.337 26.472C132.572 26.984 132.689 27.6347 132.689 28.424V33H130.897L130.737 32.168H130.673C130.343 32.4667 129.98 32.712 129.585 32.904C129.201 33.096 128.78 33.192 128.321 33.192ZM129.057 31.496C129.345 31.496 129.596 31.432 129.809 31.304C130.033 31.1653 130.263 30.984 130.497 30.76V29.256C129.889 29.3307 129.409 29.4373 129.057 29.576C128.705 29.704 128.455 29.864 128.305 30.056C128.156 30.2373 128.081 30.4347 128.081 30.648C128.081 30.936 128.172 31.1493 128.353 31.288C128.535 31.4267 128.769 31.496 129.057 31.496ZM140.251 33.192C139.728 33.192 139.19 33.0907 138.635 32.888C138.091 32.6747 137.622 32.408 137.227 32.088L138.219 30.712C138.582 30.9787 138.934 31.1867 139.275 31.336C139.616 31.4853 139.963 31.56 140.315 31.56C140.688 31.56 140.96 31.4907 141.131 31.352C141.302 31.2133 141.387 31.0267 141.387 30.792C141.387 30.6107 141.307 30.456 141.147 30.328C140.998 30.1893 140.795 30.072 140.539 29.976C140.294 29.8693 140.032 29.7627 139.755 29.656C139.424 29.528 139.094 29.368 138.763 29.176C138.443 28.984 138.171 28.7387 137.947 28.44C137.734 28.1413 137.627 27.7733 137.627 27.336C137.627 26.6107 137.899 26.024 138.443 25.576C138.987 25.1173 139.707 24.888 140.603 24.888C141.2 24.888 141.723 24.9893 142.171 25.192C142.619 25.3947 143.008 25.624 143.339 25.88L142.363 27.208C142.075 26.9947 141.792 26.8293 141.515 26.712C141.238 26.584 140.955 26.52 140.667 26.52C140.336 26.52 140.086 26.5893 139.915 26.728C139.755 26.856 139.675 27.0267 139.675 27.24C139.675 27.4107 139.75 27.5547 139.899 27.672C140.048 27.7893 140.246 27.896 140.491 27.992C140.736 28.088 140.998 28.184 141.275 28.28C141.616 28.408 141.952 28.568 142.283 28.76C142.614 28.9413 142.891 29.1867 143.115 29.496C143.339 29.7947 143.451 30.184 143.451 30.664C143.451 31.1333 143.328 31.56 143.083 31.944C142.838 32.328 142.475 32.632 141.995 32.856C141.526 33.08 140.944 33.192 140.251 33.192ZM147.346 33.192C146.504 33.192 145.885 32.9093 145.49 32.344C145.096 31.7787 144.898 31 144.898 30.008V25.08H147.09V29.736C147.09 30.3333 147.176 30.7493 147.346 30.984C147.528 31.208 147.8 31.32 148.162 31.32C148.472 31.32 148.738 31.2507 148.962 31.112C149.186 30.9627 149.421 30.7173 149.666 30.376V25.08H151.858V33H150.066L149.906 31.88H149.858C149.517 32.2853 149.149 32.6053 148.754 32.84C148.36 33.0747 147.89 33.192 147.346 33.192ZM155.993 33.192C155.524 33.192 155.113 33.0907 154.761 32.888C154.409 32.6747 154.132 32.392 153.929 32.04C153.737 31.6773 153.641 31.272 153.641 30.824C153.641 29.992 153.998 29.3413 154.713 28.872C155.428 28.4027 156.58 28.0827 158.169 27.912C158.158 27.6667 158.105 27.448 158.009 27.256C157.924 27.064 157.785 26.9147 157.593 26.808C157.412 26.7013 157.166 26.648 156.857 26.648C156.505 26.648 156.153 26.7173 155.801 26.856C155.46 26.984 155.102 27.16 154.729 27.384L153.929 25.928C154.249 25.736 154.59 25.56 154.953 25.4C155.316 25.24 155.689 25.1173 156.073 25.032C156.457 24.936 156.857 24.888 157.273 24.888C157.945 24.888 158.51 25.0213 158.969 25.288C159.428 25.5547 159.774 25.9493 160.009 26.472C160.244 26.984 160.361 27.6347 160.361 28.424V33H158.569L158.409 32.168H158.345C158.014 32.4667 157.652 32.712 157.257 32.904C156.873 33.096 156.452 33.192 155.993 33.192ZM156.729 31.496C157.017 31.496 157.268 31.432 157.481 31.304C157.705 31.1653 157.934 30.984 158.169 30.76V29.256C157.561 29.3307 157.081 29.4373 156.729 29.576C156.377 29.704 156.126 29.864 155.977 30.056C155.828 30.2373 155.753 30.4347 155.753 30.648C155.753 30.936 155.844 31.1493 156.025 31.288C156.206 31.4267 156.441 31.496 156.729 31.496ZM169.027 33.192C168.302 33.192 167.646 33.032 167.059 32.712C166.472 32.3813 166.003 31.9067 165.651 31.288C165.31 30.6693 165.139 29.9227 165.139 29.048C165.139 28.1733 165.331 27.4267 165.715 26.808C166.099 26.1893 166.6 25.7147 167.219 25.384C167.838 25.0533 168.504 24.888 169.219 24.888C169.71 24.888 170.147 24.9733 170.531 25.144C170.915 25.304 171.251 25.5067 171.539 25.752L170.483 27.176C170.291 26.9947 170.104 26.8667 169.923 26.792C169.752 26.7067 169.56 26.664 169.347 26.664C168.952 26.664 168.606 26.7653 168.307 26.968C168.019 27.16 167.795 27.4373 167.635 27.8C167.475 28.152 167.395 28.568 167.395 29.048C167.395 29.528 167.475 29.9493 167.635 30.312C167.795 30.664 168.014 30.936 168.291 31.128C168.579 31.32 168.904 31.416 169.267 31.416C169.544 31.416 169.811 31.3573 170.067 31.24C170.323 31.1227 170.552 30.9787 170.755 30.808L171.635 32.248C171.251 32.5787 170.83 32.8187 170.371 32.968C169.912 33.1173 169.464 33.192 169.027 33.192ZM176.432 33.192C175.76 33.192 175.131 33.032 174.544 32.712C173.968 32.3813 173.499 31.9067 173.136 31.288C172.773 30.6693 172.592 29.9227 172.592 29.048C172.592 28.1733 172.773 27.4267 173.136 26.808C173.499 26.1893 173.968 25.7147 174.544 25.384C175.131 25.0533 175.76 24.888 176.432 24.888C177.093 24.888 177.712 25.0533 178.288 25.384C178.875 25.7147 179.349 26.1893 179.712 26.808C180.075 27.4267 180.256 28.1733 180.256 29.048C180.256 29.9227 180.075 30.6693 179.712 31.288C179.349 31.9067 178.875 32.3813 178.288 32.712C177.712 33.032 177.093 33.192 176.432 33.192ZM176.432 31.416C176.773 31.416 177.061 31.32 177.296 31.128C177.531 30.936 177.707 30.664 177.824 30.312C177.941 29.9493 178 29.528 178 29.048C178 28.568 177.941 28.152 177.824 27.8C177.707 27.4373 177.531 27.16 177.296 26.968C177.061 26.7653 176.773 26.664 176.432 26.664C176.08 26.664 175.787 26.7653 175.552 26.968C175.317 27.16 175.141 27.4373 175.024 27.8C174.907 28.152 174.848 28.568 174.848 29.048C174.848 29.528 174.907 29.9493 175.024 30.312C175.141 30.664 175.317 30.936 175.552 31.128C175.787 31.32 176.08 31.416 176.432 31.416ZM181.916 33V25.08H183.708L183.868 26.104H183.932C184.273 25.7733 184.646 25.4907 185.052 25.256C185.468 25.0107 185.948 24.888 186.492 24.888C187.345 24.888 187.964 25.1707 188.348 25.736C188.742 26.3013 188.94 27.08 188.94 28.072V33H186.748V28.36C186.748 27.7627 186.662 27.3467 186.492 27.112C186.321 26.8773 186.054 26.76 185.692 26.76C185.372 26.76 185.1 26.8347 184.876 26.984C184.652 27.1227 184.396 27.3307 184.108 27.608V33H181.916ZM193.986 33.192C193.026 33.192 192.338 32.9147 191.922 32.36C191.516 31.8053 191.314 31.08 191.314 30.184V26.808H190.226V25.176L191.442 25.08L191.698 22.968H193.506V25.08H195.442V26.808H193.506V30.168C193.506 30.616 193.596 30.9467 193.778 31.16C193.97 31.3627 194.231 31.464 194.562 31.464C194.7 31.464 194.839 31.448 194.978 31.416C195.116 31.384 195.239 31.3467 195.346 31.304L195.698 32.904C195.484 32.968 195.234 33.032 194.946 33.096C194.658 33.16 194.338 33.192 193.986 33.192ZM198.993 33.192C198.524 33.192 198.113 33.0907 197.761 32.888C197.409 32.6747 197.132 32.392 196.929 32.04C196.737 31.6773 196.641 31.272 196.641 30.824C196.641 29.992 196.998 29.3413 197.713 28.872C198.428 28.4027 199.58 28.0827 201.169 27.912C201.158 27.6667 201.105 27.448 201.009 27.256C200.924 27.064 200.785 26.9147 200.593 26.808C200.412 26.7013 200.166 26.648 199.857 26.648C199.505 26.648 199.153 26.7173 198.801 26.856C198.46 26.984 198.102 27.16 197.729 27.384L196.929 25.928C197.249 25.736 197.59 25.56 197.953 25.4C198.316 25.24 198.689 25.1173 199.073 25.032C199.457 24.936 199.857 24.888 200.273 24.888C200.945 24.888 201.51 25.0213 201.969 25.288C202.428 25.5547 202.774 25.9493 203.009 26.472C203.244 26.984 203.361 27.6347 203.361 28.424V33H201.569L201.409 32.168H201.345C201.014 32.4667 200.652 32.712 200.257 32.904C199.873 33.096 199.452 33.192 198.993 33.192ZM199.729 31.496C200.017 31.496 200.268 31.432 200.481 31.304C200.705 31.1653 200.934 30.984 201.169 30.76V29.256C200.561 29.3307 200.081 29.4373 199.729 29.576C199.377 29.704 199.126 29.864 198.977 30.056C198.828 30.2373 198.753 30.4347 198.753 30.648C198.753 30.936 198.844 31.1493 199.025 31.288C199.206 31.4267 199.441 31.496 199.729 31.496Z" fill="white"/>
</svg>
