<svg width="314" height="29" viewBox="0 0 314 29" fill="none" xmlns="http://www.w3.org/2000/svg">
<path d="M0.0880001 28V2.8H13.372C15.028 2.8 16.492 3.16 17.764 3.88C19.06 4.576 20.08 5.536 20.824 6.76C21.568 7.984 21.94 9.388 21.94 10.972C21.94 12.484 21.568 13.852 20.824 15.076C20.08 16.276 19.06 17.224 17.764 17.92C16.468 18.616 15.004 18.964 13.372 18.964H6.28V28H0.0880001ZM6.28 13.852H12.652C13.564 13.852 14.296 13.588 14.848 13.06C15.4 12.532 15.676 11.848 15.676 11.008C15.676 10.144 15.4 9.448 14.848 8.92C14.296 8.368 13.564 8.092 12.652 8.092H6.28V13.852ZM32.6821 28.36C30.7381 28.36 28.9861 27.928 27.4261 27.064C25.8661 26.176 24.6301 24.988 23.7181 23.5C22.8061 22.012 22.3501 20.344 22.3501 18.496C22.3501 16.648 22.8061 14.98 23.7181 13.492C24.6301 11.98 25.8661 10.792 27.4261 9.928C28.9861 9.04 30.7381 8.596 32.6821 8.596C34.6261 8.596 36.3781 9.04 37.9381 9.928C39.4981 10.792 40.7341 11.98 41.6461 13.492C42.5581 14.98 43.0141 16.648 43.0141 18.496C43.0141 20.344 42.5581 22.012 41.6461 23.5C40.7341 24.988 39.4981 26.176 37.9381 27.064C36.3781 27.928 34.6261 28.36 32.6821 28.36ZM32.6821 23.32C33.5701 23.32 34.3621 23.104 35.0581 22.672C35.7541 22.24 36.3061 21.664 36.7141 20.944C37.1221 20.2 37.3261 19.384 37.3261 18.496C37.3261 17.584 37.1221 16.768 36.7141 16.048C36.3061 15.304 35.7421 14.716 35.0221 14.284C34.3261 13.852 33.5461 13.636 32.6821 13.636C31.8181 13.636 31.0261 13.852 30.3061 14.284C29.6101 14.716 29.0581 15.304 28.6501 16.048C28.2421 16.768 28.0381 17.584 28.0381 18.496C28.0381 19.384 28.2421 20.2 28.6501 20.944C29.0581 21.664 29.6101 22.24 30.3061 22.672C31.0261 23.104 31.8181 23.32 32.6821 23.32ZM53.2732 28.36C51.4732 28.36 49.8052 28.156 48.2692 27.748C46.7332 27.316 45.4012 26.692 44.2732 25.876L47.0452 21.952C48.2452 22.672 49.3372 23.2 50.3212 23.536C51.3052 23.848 52.2772 24.004 53.2372 24.004C54.1972 24.004 54.9532 23.872 55.5052 23.608C56.0812 23.32 56.3692 22.948 56.3692 22.492C56.3692 22.132 56.2132 21.844 55.9012 21.628C55.5892 21.388 55.0972 21.22 54.4252 21.124L50.6452 20.548C48.7492 20.26 47.2972 19.636 46.2892 18.676C45.3052 17.692 44.8132 16.42 44.8132 14.86C44.8132 13.564 45.1372 12.46 45.7852 11.548C46.4572 10.612 47.4052 9.904 48.6292 9.424C49.8532 8.92 51.3172 8.668 53.0212 8.668C54.4132 8.668 55.7932 8.86 57.1612 9.244C58.5292 9.628 59.8012 10.204 60.9772 10.972L58.2052 14.716C57.1732 14.116 56.1892 13.684 55.2532 13.42C54.3172 13.132 53.3812 12.988 52.4452 12.988C51.7012 12.988 51.1012 13.12 50.6452 13.384C50.1892 13.624 49.9612 13.948 49.9612 14.356C49.9612 14.74 50.1292 15.052 50.4652 15.292C50.8012 15.508 51.3772 15.676 52.1932 15.796L55.9732 16.372C57.8452 16.636 59.2852 17.26 60.2932 18.244C61.3252 19.204 61.8412 20.428 61.8412 21.916C61.8412 23.164 61.4692 24.268 60.7252 25.228C59.9812 26.188 58.9612 26.956 57.6652 27.532C56.3932 28.084 54.9292 28.36 53.2732 28.36ZM71.5896 28.36C69.7896 28.36 68.1216 28.156 66.5856 27.748C65.0496 27.316 63.7176 26.692 62.5896 25.876L65.3616 21.952C66.5616 22.672 67.6536 23.2 68.6376 23.536C69.6216 23.848 70.5936 24.004 71.5536 24.004C72.5136 24.004 73.2696 23.872 73.8216 23.608C74.3976 23.32 74.6856 22.948 74.6856 22.492C74.6856 22.132 74.5296 21.844 74.2176 21.628C73.9056 21.388 73.4136 21.22 72.7416 21.124L68.9616 20.548C67.0656 20.26 65.6136 19.636 64.6056 18.676C63.6216 17.692 63.1296 16.42 63.1296 14.86C63.1296 13.564 63.4536 12.46 64.1016 11.548C64.7736 10.612 65.7216 9.904 66.9456 9.424C68.1696 8.92 69.6336 8.668 71.3376 8.668C72.7296 8.668 74.1096 8.86 75.4776 9.244C76.8456 9.628 78.1176 10.204 79.2936 10.972L76.5216 14.716C75.4896 14.116 74.5056 13.684 73.5696 13.42C72.6336 13.132 71.6976 12.988 70.7616 12.988C70.0176 12.988 69.4176 13.12 68.9616 13.384C68.5056 13.624 68.2776 13.948 68.2776 14.356C68.2776 14.74 68.4456 15.052 68.7816 15.292C69.1176 15.508 69.6936 15.676 70.5096 15.796L74.2896 16.372C76.1616 16.636 77.6016 17.26 78.6096 18.244C79.6416 19.204 80.1576 20.428 80.1576 21.916C80.1576 23.164 79.7856 24.268 79.0416 25.228C78.2976 26.188 77.2776 26.956 75.9816 27.532C74.7096 28.084 73.2456 28.36 71.5896 28.36ZM89.834 28.36C88.346 28.36 87.026 28.036 85.874 27.388C84.746 26.74 83.858 25.84 83.21 24.688C82.562 23.512 82.238 22.18 82.238 20.692V8.956H88.07V19.9C88.07 20.932 88.382 21.772 89.006 22.42C89.654 23.044 90.494 23.356 91.526 23.356C92.27 23.356 92.93 23.224 93.506 22.96C94.082 22.696 94.562 22.324 94.946 21.844V8.956H100.778V28H94.946V26.704C93.506 27.808 91.802 28.36 89.834 28.36ZM104.39 28V8.956H110.222V28H104.39ZM107.306 7.192C106.418 7.192 105.662 6.88 105.038 6.256C104.414 5.632 104.102 4.876 104.102 3.988C104.102 3.1 104.414 2.344 105.038 1.72C105.662 1.096 106.418 0.783998 107.306 0.783998C108.194 0.783998 108.95 1.096 109.574 1.72C110.198 2.344 110.51 3.1 110.51 3.988C110.51 4.876 110.198 5.632 109.574 6.256C108.95 6.88 108.194 7.192 107.306 7.192ZM130.455 28.252C128.175 28.252 126.447 27.748 125.271 26.74C124.119 25.708 123.543 24.196 123.543 22.204V13.816H119.691V8.956H123.543V4.06L129.375 2.8V8.956H134.703V13.816H129.375V21.052C129.375 21.892 129.555 22.492 129.915 22.852C130.299 23.188 130.959 23.356 131.895 23.356C132.375 23.356 132.807 23.332 133.191 23.284C133.599 23.212 134.043 23.104 134.523 22.96V27.676C133.995 27.844 133.323 27.976 132.507 28.072C131.691 28.192 131.007 28.252 130.455 28.252ZM146.308 28.36C144.364 28.36 142.6 27.928 141.016 27.064C139.456 26.176 138.22 24.988 137.308 23.5C136.396 22.012 135.94 20.344 135.94 18.496C135.94 16.648 136.372 14.98 137.236 13.492C138.124 12.004 139.324 10.828 140.836 9.964C142.348 9.076 144.028 8.632 145.876 8.632C147.748 8.632 149.404 9.088 150.844 10C152.284 10.888 153.412 12.112 154.228 13.672C155.068 15.232 155.488 17.02 155.488 19.036V20.476H141.916C142.18 21.076 142.528 21.604 142.96 22.06C143.416 22.516 143.956 22.876 144.58 23.14C145.204 23.38 145.876 23.5 146.596 23.5C147.388 23.5 148.108 23.38 148.756 23.14C149.404 22.876 149.956 22.516 150.412 22.06L154.264 25.48C153.064 26.488 151.828 27.22 150.556 27.676C149.308 28.132 147.892 28.36 146.308 28.36ZM141.808 16.408H149.764C149.572 15.784 149.272 15.256 148.864 14.824C148.48 14.368 148.024 14.02 147.496 13.78C146.968 13.516 146.392 13.384 145.768 13.384C145.12 13.384 144.532 13.504 144.004 13.744C143.476 13.984 143.02 14.332 142.636 14.788C142.276 15.22 142 15.76 141.808 16.408ZM158.214 28V8.956H164.046V10.18C165.39 9.124 166.974 8.596 168.798 8.596C169.998 8.596 171.078 8.824 172.038 9.28C172.998 9.736 173.802 10.384 174.45 11.224C175.218 10.384 176.13 9.736 177.186 9.28C178.242 8.824 179.394 8.596 180.642 8.596C182.082 8.596 183.354 8.92 184.458 9.568C185.562 10.216 186.426 11.116 187.05 12.268C187.698 13.42 188.022 14.752 188.022 16.264V28H182.19V17.056C182.19 16 181.902 15.16 181.326 14.536C180.774 13.912 180.03 13.6 179.094 13.6C178.446 13.6 177.858 13.72 177.33 13.96C176.802 14.2 176.346 14.56 175.962 15.04C175.986 15.232 175.998 15.436 175.998 15.652C176.022 15.844 176.034 16.048 176.034 16.264V28H170.202V17.056C170.202 16 169.914 15.16 169.338 14.536C168.786 13.912 168.042 13.6 167.106 13.6C166.458 13.6 165.87 13.72 165.342 13.96C164.838 14.176 164.406 14.512 164.046 14.968V28H158.214ZM207.719 28.36C205.823 28.36 204.107 27.928 202.571 27.064C201.059 26.2 199.859 25.024 198.971 23.536C198.083 22.024 197.639 20.344 197.639 18.496C197.639 16.624 198.083 14.944 198.971 13.456C199.859 11.968 201.059 10.792 202.571 9.928C204.107 9.04 205.823 8.596 207.719 8.596C209.279 8.596 210.767 8.908 212.183 9.532C213.599 10.132 214.799 10.996 215.783 12.124L212.219 15.832C211.547 15.064 210.863 14.512 210.167 14.176C209.471 13.816 208.703 13.636 207.863 13.636C207.023 13.636 206.267 13.852 205.595 14.284C204.923 14.692 204.395 15.268 204.011 16.012C203.627 16.732 203.435 17.56 203.435 18.496C203.435 19.408 203.627 20.236 204.011 20.98C204.419 21.7 204.971 22.276 205.667 22.708C206.363 23.116 207.143 23.32 208.007 23.32C208.799 23.32 209.531 23.152 210.203 22.816C210.875 22.48 211.523 21.964 212.147 21.268L215.603 24.868C214.643 25.972 213.467 26.836 212.075 27.46C210.683 28.06 209.231 28.36 207.719 28.36ZM226.85 28.36C224.906 28.36 223.154 27.928 221.594 27.064C220.034 26.176 218.798 24.988 217.886 23.5C216.974 22.012 216.518 20.344 216.518 18.496C216.518 16.648 216.974 14.98 217.886 13.492C218.798 11.98 220.034 10.792 221.594 9.928C223.154 9.04 224.906 8.596 226.85 8.596C228.794 8.596 230.546 9.04 232.106 9.928C233.666 10.792 234.902 11.98 235.814 13.492C236.726 14.98 237.182 16.648 237.182 18.496C237.182 20.344 236.726 22.012 235.814 23.5C234.902 24.988 233.666 26.176 232.106 27.064C230.546 27.928 228.794 28.36 226.85 28.36ZM226.85 23.32C227.738 23.32 228.53 23.104 229.226 22.672C229.922 22.24 230.474 21.664 230.882 20.944C231.29 20.2 231.494 19.384 231.494 18.496C231.494 17.584 231.29 16.768 230.882 16.048C230.474 15.304 229.91 14.716 229.19 14.284C228.494 13.852 227.714 13.636 226.85 13.636C225.986 13.636 225.194 13.852 224.474 14.284C223.778 14.716 223.226 15.304 222.818 16.048C222.41 16.768 222.206 17.584 222.206 18.496C222.206 19.384 222.41 20.2 222.818 20.944C223.226 21.664 223.778 22.24 224.474 22.672C225.194 23.104 225.986 23.32 226.85 23.32ZM239.917 28V8.956H245.749V10.252C247.189 9.148 248.893 8.596 250.861 8.596C252.349 8.596 253.657 8.92 254.785 9.568C255.937 10.216 256.837 11.116 257.485 12.268C258.133 13.42 258.457 14.752 258.457 16.264V28H252.625V17.056C252.625 16 252.313 15.16 251.689 14.536C251.065 13.912 250.225 13.6 249.169 13.6C248.425 13.6 247.765 13.732 247.189 13.996C246.637 14.26 246.157 14.632 245.749 15.112V28H239.917ZM271.01 28.252C268.73 28.252 267.002 27.748 265.826 26.74C264.674 25.708 264.098 24.196 264.098 22.204V13.816H260.246V8.956H264.098V4.06L269.93 2.8V8.956H275.258V13.816H269.93V21.052C269.93 21.892 270.11 22.492 270.47 22.852C270.854 23.188 271.514 23.356 272.45 23.356C272.93 23.356 273.362 23.332 273.746 23.284C274.154 23.212 274.598 23.104 275.078 22.96V27.676C274.55 27.844 273.878 27.976 273.062 28.072C272.246 28.192 271.562 28.252 271.01 28.252ZM283.618 28.324C282.274 28.324 281.074 28.072 280.018 27.568C278.986 27.064 278.17 26.368 277.57 25.48C276.994 24.592 276.706 23.572 276.706 22.42C276.706 20.596 277.39 19.192 278.758 18.208C280.15 17.2 282.082 16.696 284.554 16.696C286.042 16.696 287.482 16.876 288.874 17.236V16.3C288.874 15.34 288.562 14.632 287.938 14.176C287.338 13.696 286.438 13.456 285.238 13.456C284.494 13.456 283.654 13.576 282.718 13.816C281.806 14.056 280.726 14.44 279.478 14.968L277.39 10.684C278.95 9.988 280.45 9.472 281.89 9.136C283.354 8.776 284.818 8.596 286.282 8.596C288.922 8.596 290.974 9.232 292.438 10.504C293.902 11.752 294.634 13.516 294.634 15.796V28H288.874V26.848C288.106 27.376 287.29 27.76 286.426 28C285.586 28.216 284.65 28.324 283.618 28.324ZM282.25 22.312C282.25 22.912 282.514 23.38 283.042 23.716C283.57 24.052 284.302 24.22 285.238 24.22C285.934 24.22 286.582 24.148 287.182 24.004C287.806 23.86 288.37 23.632 288.874 23.32V20.872C288.322 20.728 287.758 20.62 287.182 20.548C286.606 20.476 286.018 20.44 285.418 20.44C284.41 20.44 283.63 20.608 283.078 20.944C282.526 21.256 282.25 21.712 282.25 22.312ZM301.195 20.152C301.147 19.024 301.183 18.088 301.303 17.344C301.447 16.576 301.723 15.904 302.131 15.328C302.563 14.728 303.151 14.152 303.895 13.6L305.839 12.16C306.463 11.704 306.919 11.272 307.207 10.864C307.495 10.456 307.639 10.06 307.639 9.676C307.639 9.196 307.495 8.776 307.207 8.416C306.919 8.056 306.523 7.768 306.019 7.552C305.539 7.336 304.975 7.228 304.327 7.228C303.295 7.228 302.347 7.504 301.483 8.056C300.643 8.608 300.043 9.34 299.683 10.252L294.967 8.488C295.423 7.24 296.119 6.172 297.055 5.284C297.991 4.372 299.095 3.664 300.367 3.16C301.663 2.656 303.055 2.404 304.543 2.404C306.223 2.404 307.723 2.716 309.043 3.34C310.363 3.94 311.407 4.756 312.175 5.788C312.943 6.82 313.327 7.996 313.327 9.316C313.327 10.204 313.183 10.996 312.895 11.692C312.631 12.388 312.163 13.072 311.491 13.744C310.843 14.392 309.943 15.112 308.791 15.904L307.891 16.516C307.195 16.972 306.703 17.476 306.415 18.028C306.151 18.556 306.031 19.264 306.055 20.152H301.195ZM303.643 28.396C302.731 28.396 301.939 28.072 301.267 27.424C300.619 26.752 300.295 25.96 300.295 25.048C300.295 24.136 300.619 23.356 301.267 22.708C301.939 22.036 302.731 21.7 303.643 21.7C304.555 21.7 305.335 22.036 305.983 22.708C306.655 23.356 306.991 24.136 306.991 25.048C306.991 25.96 306.655 26.752 305.983 27.424C305.335 28.072 304.555 28.396 303.643 28.396Z" fill="#F3F3F3"/>
</svg>
